<?xml version="1.0"?>
<svg xmlns="http://www.w3.org/2000/svg" xmlns:xlink="http://www.w3.org/1999/xlink" xmlns:svgjs="http://svgjs.com/svgjs" version="1.1" width="512" height="512" x="0" y="0" viewBox="0 0 300 300" style="enable-background:new 0 0 512 512" xml:space="preserve" class=""><g><g xmlns="http://www.w3.org/2000/svg"><circle cx="194" cy="103.416" fill="#fcf1c3" r="76" data-original="#fcf1c3" style="" class=""/><g><path d="m144 239.416h100.968c4.988 0 9.032-4.044 9.032-9.032v-146.968h-220v146.968c0 4.988 4.044 9.032 9.032 9.032z" fill="#4da8da" data-original="#6b4f5b" style="" class=""/><path d="m244.969 243.416h-201.938c-7.184 0-13.031-5.848-13.031-13.031v-146.969c0-2.211 1.789-4 4-4h220c2.211 0 4 1.789 4 4v146.969c0 7.183-5.848 13.031-13.031 13.031zm-206.969-156v142.969c0 2.773 2.258 5.031 5.031 5.031h201.938c2.773 0 5.031-2.258 5.031-5.031v-142.969z" fill="#4c241d" data-original="#4c241d" style="" class=""/></g><g><path d="m254 83.416h-220v-14.968c0-4.988 4.044-9.032 9.032-9.032h201.935c4.988 0 9.032 4.044 9.032 9.032v14.968z" fill="#ffffff" data-original="#ffffff" style="" class=""/><path d="m254 87.416h-220c-2.211 0-4-1.789-4-4v-14.969c0-7.184 5.848-13.031 13.031-13.031h201.938c7.184 0 13.031 5.848 13.031 13.031v14.969c0 2.211-1.789 4-4 4zm-216-8h212v-10.969c0-2.773-2.258-5.031-5.031-5.031h-201.938c-2.773 0-5.031 2.258-5.031 5.031z" fill="#4c241d" data-original="#4c241d" style="" class=""/></g><circle cx="50" cy="71.416" fill="#f53e28" r="4" data-original="#f53e28" style="" class=""/><circle cx="62" cy="71.416" fill="#ffce56" r="4" data-original="#ffce56" style=""/><circle cx="74" cy="71.416" fill="#a9ba5a" r="4" data-original="#a9ba5a" style=""/><path d="m242 159.416c-2.211 0-4-1.789-4-4v-48c0-2.211 1.789-4 4-4s4 1.789 4 4v48c0 2.211-1.789 4-4 4z" fill="#4c241d" data-original="#4c241d" style="" class=""/><circle cx="190" cy="31.416" fill="#4c241d" r="4" data-original="#4c241d" style="" class=""/><path d="m239.656 49.072c-1.023 0-2.047-.391-2.828-1.172l-11.312-11.312c-1.562-1.562-1.562-4.094 0-5.656s4.094-1.562 5.656 0l11.312 11.312c1.562 1.562 1.562 4.094 0 5.656-.781.782-1.804 1.172-2.828 1.172z" fill="#4c241d" data-original="#4c241d" style="" class=""/><path d="m228.344 49.072c-1.023 0-2.047-.391-2.828-1.172-1.562-1.562-1.562-4.094 0-5.656l11.312-11.312c1.562-1.562 4.094-1.562 5.656 0s1.562 4.094 0 5.656l-11.312 11.312c-.781.782-1.805 1.172-2.828 1.172z" fill="#4c241d" data-original="#4c241d" style="" class=""/><g fill="#fff"><path d="m94 103.416h-40c-2.211 0-4-1.789-4-4s1.789-4 4-4h40c2.211 0 4 1.789 4 4s-1.789 4-4 4z" fill="#ffffff" data-original="#ffffff" style="" class=""/><path d="m214 135.416h-92c-2.211 0-4-1.789-4-4s1.789-4 4-4h92c2.211 0 4 1.789 4 4s-1.789 4-4 4z" fill="#ffffff" data-original="#ffffff" style="" class=""/><path d="m214 119.416h-52c-2.211 0-4-1.789-4-4s1.789-4 4-4h52c2.211 0 4 1.789 4 4s-1.789 4-4 4z" fill="#ffffff" data-original="#ffffff" style="" class=""/><path d="m106 199.416h-52c-2.211 0-4-1.789-4-4s1.789-4 4-4h52c2.211 0 4 1.789 4 4s-1.789 4-4 4z" fill="#ffffff" data-original="#ffffff" style="" class=""/><path d="m106 135.416h-52c-2.211 0-4-1.789-4-4s1.789-4 4-4h52c2.211 0 4 1.789 4 4s-1.789 4-4 4z" fill="#ffffff" data-original="#ffffff" style="" class=""/><path d="m190 103.416h-16c-2.211 0-4-1.789-4-4s1.789-4 4-4h16c2.211 0 4 1.789 4 4s-1.789 4-4 4z" fill="#ffffff" data-original="#ffffff" style="" class=""/></g><path d="m158 103.416h-48c-2.211 0-4-1.789-4-4s1.789-4 4-4h48c2.211 0 4 1.789 4 4s-1.789 4-4 4z" fill="#a9ba5a" data-original="#a9ba5a" style=""/><path d="m82 167.416h-28c-2.211 0-4-1.789-4-4s1.789-4 4-4h28c2.211 0 4 1.789 4 4s-1.789 4-4 4z" fill="#a9ba5a" data-original="#a9ba5a" style=""/><path d="m126 167.416h-28c-2.211 0-4-1.789-4-4s1.789-4 4-4h28c2.211 0 4 1.789 4 4s-1.789 4-4 4z" fill="#a9ba5a" data-original="#a9ba5a" style=""/><path d="m138 151.416h-84c-2.211 0-4-1.789-4-4s1.789-4 4-4h84c2.211 0 4 1.789 4 4s-1.789 4-4 4z" fill="#02eae6" data-original="#02eae6" style=""/><path d="m130 183.416h-76c-2.211 0-4-1.789-4-4s1.789-4 4-4h76c2.211 0 4 1.789 4 4s-1.789 4-4 4z" fill="#02eae6" data-original="#02eae6" style=""/><path d="m146 119.416h-92c-2.211 0-4-1.789-4-4s1.789-4 4-4h92c2.211 0 4 1.789 4 4s-1.789 4-4 4z" fill="#a9ba5a" data-original="#a9ba5a" style=""/><g><path d="m258.586 266.83c-2.343 2.343-6.142 2.343-8.485 0l-31.757-31.757 8.485-8.485 31.757 31.757c2.343 2.343 2.343 6.142 0 8.485z" fill="#f53e28" data-original="#f53e28" style="" class=""/><path d="m254.344 272.584c-2.562 0-5.121-.977-7.07-2.926l-31.758-31.758c-1.562-1.562-1.562-4.094 0-5.656l8.484-8.484c1.562-1.562 4.094-1.562 5.656 0l31.758 31.758c3.898 3.898 3.898 10.242 0 14.141-1.949 1.948-4.508 2.925-7.07 2.925zm-30.344-37.512 28.93 28.93c.512.512 1.105.586 1.414.586s.902-.074 1.414-.586.586-1.105.586-1.414-.074-.902-.586-1.414l-28.93-28.93z" fill="#4c241d" data-original="#4c241d" style="" class=""/></g><g><circle cx="194" cy="199.416" fill="#ffce56" r="48" data-original="#ffce56" style=""/><path d="m194 251.393c-13.316 0-26.633-5.07-36.77-15.207-20.273-20.273-20.273-53.266 0-73.539s53.266-20.273 73.539 0 20.273 53.266 0 73.539c-10.136 10.136-23.453 15.207-36.769 15.207zm0-95.957c-11.266 0-22.535 4.289-31.113 12.867-17.156 17.156-17.156 45.07 0 62.227s45.07 17.156 62.227 0 17.156-45.07 0-62.227c-8.579-8.578-19.848-12.867-31.114-12.867z" fill="#4c241d" data-original="#4c241d" style="" class=""/></g><g><path d="m162 218.96v-7.544h20v21.556" fill="#ffce56" data-original="#ffce56" style=""/><path d="m182 236.971c-2.211 0-4-1.789-4-4v-17.555h-12v3.543c0 2.211-1.789 4-4 4s-4-1.789-4-4v-7.543c0-2.211 1.789-4 4-4h20c2.211 0 4 1.789 4 4v21.555c0 2.211-1.789 4-4 4z" fill="#4c241d" data-original="#4c241d" style="" class=""/></g><path d="m198 235.416c-2.211 0-4-1.789-4-4v-20c0-2.211 1.789-4 4-4s4 1.789 4 4v20c0 2.211-1.789 4-4 4z" fill="#4c241d" data-original="#4c241d" style="" class=""/><path d="m214 235.416c-2.211 0-4-1.789-4-4v-20c0-2.211 1.789-4 4-4s4 1.789 4 4v20c0 2.211-1.789 4-4 4z" fill="#4c241d" data-original="#4c241d" style="" class=""/><path d="m214 203.416c-2.211 0-4-1.789-4-4v-28c0-2.211 1.789-4 4-4s4 1.789 4 4v28c0 2.211-1.789 4-4 4z" fill="#4c241d" data-original="#4c241d" style="" class=""/><path d="m198 203.416h-20c-2.211 0-4-1.789-4-4v-28c0-2.211 1.789-4 4-4h20c2.211 0 4 1.789 4 4v28c0 2.211-1.789 4-4 4zm-16-8h12v-20h-12z" fill="#4c241d" data-original="#4c241d" style="" class=""/></g></g></svg>
