<svg width="800" height="600" xmlns="http://www.w3.org/2000/svg">
 <!-- Created with Method Draw - http://github.com/duopixel/Method-Draw/ -->

 <g>
  <title>background</title>
  <rect fill="#fff" id="canvas_background" height="602" width="802" y="-1" x="-1"/>
  <g display="none" overflow="visible" y="0" x="0" height="100%" width="100%" id="canvasGrid">
   <rect fill="url(#gridpattern)" stroke-width="0" y="0" x="0" height="100%" width="100%"/>
  </g>
 </g>
 <g>
  <title>Layer 1</title>
  <g stroke="null" id="svg_45">
   <g stroke="null" transform="matrix(0.757654190128374,0,0,0.7978394093020408,-2864.787882124783,-2200.279497888598) " id="svg_273">
    <g stroke="null" id="svg_257">
     <g stroke="null" id="svg_240">
      <g stroke="null" id="svg_239">
       <path stroke="null" id="svg_233" fill="#ebaf52" d="m4536.88963,3154.43288c-4.962,-11.288 -16.219,-25.197 -42.221,-13.767l-22.914,10.073l-21.834,-49.668c-13.15,-29.914 -45.796,-32.126 -62.368,-16.31c-11.998,11.451 -17.455,29.705 -9.563,47.657l77.437,177.259c-18.861,-14.285 -54.884,-14.124 -71.008,2.481l0.421,-0.637c-17.126,17.637 -14.258,42.636 11.729,64.478l138.68,109.147l198.672,-87.338l1.081,-17.311c2.812,-45.041 -5.197,-90.1 -23.358,-131.413l-15.038,-34.208c-0.78,-1.773 -1.633,-3.506 -2.556,-5.193c-10.488,-19.174 -33.962,-27.078 -54.004,-18.363l-14.929,6.492l-16.872,-38.38c-7.384,-16.797 -27.068,-24.438 -43.812,-16.932l-27.543,11.933z"/>
       <path stroke="null" id="svg_234" fill="#000000" d="m4720.79963,3245.05988l-15.038,-34.207c-0.89,-2.026 -1.879,-4.035 -2.938,-5.968c-6.272,-11.469 -16.565,-20.103 -28.981,-24.313c-12.377,-4.196 -25.794,-3.636 -37.784,1.578l-5.795,2.52l-7.405,-16.845c-0.001,-0.002 -0.002,-0.005 -0.003,-0.007l-5.456,-12.41c-4.662,-10.604 -13.188,-18.74 -24.007,-22.907c-10.766,-4.146 -22.478,-3.845 -32.987,0.846l-19.228,8.33c-3.557,-5.06 -7.877,-8.921 -12.914,-11.528c-10.521,-5.445 -23.178,-4.987 -37.621,1.363l-13.759,6.048l-17.81,-40.514c-7.25,-16.493 -20.706,-27.81 -36.916,-31.05c-15.239,-3.046 -30.755,1.265 -41.51,11.53c-16.139,15.402 -20.776,38.528 -11.822,58.895l67.466,154.435c-5.649,-1.143 -11.602,-1.666 -17.643,-1.519c-15.691,0.387 -29.8,5.377 -39.247,13.79c-0.62,0.402 -1.203,0.878 -1.737,1.428c-9.494,9.777 -14.174,21.604 -13.537,34.201c0.797,15.743 9.79,31.268 26.006,44.898c0.082,0.069 0.165,0.137 0.25,0.203l138.681,109.147c1.794,1.413 3.979,2.142 6.186,2.142c1.362,0 2.732,-0.278 4.023,-0.846l198.672,-87.337c3.425,-1.505 5.723,-4.797 5.956,-8.531l1.081,-17.312c2.9,-46.426 -5.462,-93.475 -24.183,-136.06zm-81.017,10.959c1.647,3.747 5.313,5.978 9.16,5.978c1.344,0 2.71,-0.272 4.019,-0.848c5.056,-2.222 7.353,-8.123 5.13,-13.179l-19.779,-44.992l5.722,-2.488c15.467,-6.727 33.2,-0.713 41.244,13.994c0.783,1.431 1.514,2.916 2.173,4.416l15.039,34.208c17.441,39.676 25.233,83.511 22.532,126.766l-0.702,11.231l-187.601,82.472l-133.835,-105.334c-11.612,-9.796 -18.28,-20.623 -18.78,-30.498c-0.324,-6.402 1.87,-12.364 6.526,-17.748c0.336,-0.267 0.658,-0.558 0.964,-0.873c11.971,-12.329 41.824,-13.181 57.414,-1.748l34.447,33.084c1.939,1.862 4.434,2.788 6.926,2.788c2.627,0 5.25,-1.029 7.214,-3.073c3.826,-3.983 3.698,-10.314 -0.285,-14.14l-33.516,-32.191l-76.648,-175.452c-6.717,-15.28 -0.627,-28.821 7.313,-36.398c5.953,-5.682 15.066,-8.129 23.782,-6.386c9.87,1.973 17.87,8.893 22.527,19.486l58.06,132.072c1.647,3.747 5.313,5.978 9.16,5.978c1.344,0 2.71,-0.272 4.019,-0.848c5.056,-2.223 7.353,-8.123 5.13,-13.179l-32.201,-73.249l13.76,-6.049c8.636,-3.795 15.493,-4.438 20.379,-1.909c3.458,1.79 6.373,5.338 8.663,10.546l34.24,77.888c1.647,3.747 5.313,5.978 9.16,5.978c1.344,0 2.71,-0.272 4.019,-0.848c5.056,-2.223 7.353,-8.123 5.13,-13.179l-30.194,-68.685l18.32,-7.937c0.039,-0.017 0.077,-0.033 0.115,-0.051c5.625,-2.521 11.904,-2.685 17.681,-0.46c5.809,2.237 10.385,6.602 12.886,12.292l40.687,92.565z"/>
       <g stroke="null" id="svg_236">
        <path stroke="null" id="svg_235" fill="#000000" d="m4679.88763,3400.70788c-3.85,0 -7.518,-2.235 -9.163,-5.986c-2.218,-5.058 0.083,-10.956 5.141,-13.174l9.865,-4.327c5.059,-2.219 10.957,0.083 13.174,5.141c2.218,5.058 -0.083,10.956 -5.141,13.174l-9.865,4.327c-1.306,0.574 -2.67,0.845 -4.011,0.845z"/>
       </g>
       <g stroke="null" id="svg_238">
        <path stroke="null" id="svg_237" fill="#000000" d="m4544.60863,3460.26488c-3.85,0 -7.518,-2.235 -9.163,-5.986c-2.218,-5.058 0.083,-10.956 5.141,-13.174l105.353,-46.208c5.06,-2.218 10.957,0.084 13.174,5.141c2.218,5.058 -0.083,10.956 -5.141,13.174l-105.353,46.209c-1.306,0.573 -2.67,0.844 -4.011,0.844z"/>
       </g>
      </g>
     </g>
     <g stroke="null" id="svg_242">
      <path stroke="null" id="svg_241" fill="#000000" d="m4395.96963,3046.32288c-4.644,0 -8.807,-3.253 -9.783,-7.98l-6.85,-33.174c-1.117,-5.409 2.362,-10.699 7.771,-11.815c5.407,-1.114 10.699,2.363 11.815,7.771l6.85,33.174c1.117,5.409 -2.362,10.699 -7.771,11.816c-0.681,0.14 -1.362,0.208 -2.032,0.208z"/>
     </g>
     <g stroke="null" id="svg_244">
      <path stroke="null" id="svg_243" fill="#000000" d="m4291.69363,3044.79488c-1.797,0 -3.616,-0.484 -5.256,-1.5l-6.907,-4.277c-4.695,-2.908 -6.145,-9.071 -3.236,-13.767c2.908,-4.696 9.071,-6.145 13.767,-3.236l6.907,4.277c4.695,2.908 6.145,9.071 3.236,13.767c-1.892,3.055 -5.164,4.736 -8.511,4.736z"/>
     </g>
     <g stroke="null" id="svg_246">
      <path stroke="null" id="svg_245" fill="#000000" d="m4346.44163,3081.06788c-1.886,0 -3.792,-0.532 -5.486,-1.646l-21.332,-14.031c-4.614,-3.035 -5.895,-9.236 -2.86,-13.85s9.235,-5.895 13.85,-2.86l21.333,14.031c4.614,3.035 5.895,9.236 2.86,13.85c-1.922,2.921 -5.112,4.506 -8.365,4.506z"/>
     </g>
     <g stroke="null" id="svg_248">
      <path stroke="null" id="svg_247" fill="#000000" d="m4302.81363,3147.51088c-4.644,0 -8.807,-3.253 -9.783,-7.98c-1.117,-5.409 2.362,-10.699 7.771,-11.815l33.174,-6.85c5.411,-1.115 10.699,2.363 11.816,7.771c1.117,5.409 -2.362,10.699 -7.771,11.816l-33.174,6.85c-0.682,0.14 -1.363,0.208 -2.033,0.208z"/>
     </g>
     <g stroke="null" id="svg_250">
      <path stroke="null" id="svg_249" fill="#000000" d="m4346.82663,3226.78488c-1.886,0 -3.792,-0.532 -5.486,-1.646c-4.614,-3.035 -5.895,-9.236 -2.86,-13.85l18.614,-28.301c3.034,-4.614 9.235,-5.896 13.85,-2.86c4.614,3.035 5.895,9.236 2.86,13.85l-18.614,28.301c-1.921,2.921 -5.111,4.506 -8.364,4.506z"/>
     </g>
     <g stroke="null" id="svg_252">
      <path stroke="null" id="svg_251" fill="#000000" d="m4490.30763,3106.30488c-4.644,0 -8.807,-3.253 -9.783,-7.979c-1.117,-5.409 2.362,-10.699 7.771,-11.816l22.116,-4.567c5.41,-1.117 10.699,2.362 11.816,7.771s-2.362,10.699 -7.771,11.816l-22.116,4.567c-0.683,0.14 -1.363,0.208 -2.033,0.208z"/>
     </g>
     <g stroke="null" id="svg_254">
      <path stroke="null" id="svg_253" fill="#000000" d="m4552.50963,3093.46088c-4.644,0 -8.807,-3.253 -9.783,-7.979c-1.117,-5.409 2.362,-10.699 7.771,-11.816l6.912,-1.427c5.412,-1.116 10.699,2.363 11.816,7.771c1.117,5.409 -2.362,10.699 -7.771,11.816l-6.912,1.427c-0.682,0.14 -1.363,0.208 -2.033,0.208z"/>
     </g>
     <g stroke="null" id="svg_256">
      <path stroke="null" id="svg_255" fill="#000000" d="m4455.56263,3056.77388c-1.886,0 -3.792,-0.532 -5.486,-1.646c-4.614,-3.035 -5.895,-9.236 -2.86,-13.85l18.614,-28.301c3.034,-4.614 9.235,-5.896 13.85,-2.86c4.614,3.035 5.895,9.236 2.86,13.85l-18.614,28.301c-1.92,2.921 -5.111,4.506 -8.364,4.506z"/>
     </g>
    </g>
    <g stroke="null" id="svg_258"/>
    <g stroke="null" id="svg_259"/>
    <g stroke="null" id="svg_260"/>
    <g stroke="null" id="svg_261"/>
    <g stroke="null" id="svg_262"/>
    <g stroke="null" id="svg_263"/>
    <g stroke="null" id="svg_264"/>
    <g stroke="null" id="svg_265"/>
    <g stroke="null" id="svg_266"/>
    <g stroke="null" id="svg_267"/>
    <g stroke="null" id="svg_268"/>
    <g stroke="null" id="svg_269"/>
    <g stroke="null" id="svg_270"/>
    <g stroke="null" id="svg_271"/>
    <g stroke="null" id="svg_272"/>
   </g>
  </g>
  <text font-weight="bold" stroke="#000" transform="matrix(7.308195828795466,0,0,9.014266415177897,-2461.8254584412502,-748.517802783212) " xml:space="preserve" text-anchor="start" font-family="sans-serif" font-size="24" id="svg_47" y="108.94783" x="338.68958" stroke-width="0" fill="#4da8da">Join Now</text>
 </g>
</svg>