<?xml version="1.0"?>
<svg xmlns="http://www.w3.org/2000/svg" xmlns:xlink="http://www.w3.org/1999/xlink" xmlns:svgjs="http://svgjs.com/svgjs" version="1.1" width="512" height="512" x="0" y="0" viewBox="0 0 455.431 455.431" style="enable-background:new 0 0 512 512" xml:space="preserve" class=""><g>
<path xmlns="http://www.w3.org/2000/svg" style="" d="M405.493,412.764c-69.689,56.889-287.289,56.889-355.556,0c-69.689-56.889-62.578-300.089,0-364.089  s292.978-64,355.556,0S475.182,355.876,405.493,412.764z" fill="#4da8da" data-original="#d34178" class=""/>
<path xmlns="http://www.w3.org/2000/svg" style="" d="M229.138,313.209c-62.578,49.778-132.267,75.378-197.689,76.8  c-48.356-82.489-38.4-283.022,18.489-341.333c51.2-52.622,211.911-62.578,304.356-29.867  C377.049,112.676,330.116,232.142,229.138,313.209z" fill="#4da8da" data-original="#e84e89" class=""/>
<path xmlns="http://www.w3.org/2000/svg" style="" d="M246.204,348.764H140.96V106.987h93.867c17.067,0,29.867,1.422,42.667,5.689  c11.378,4.267,21.333,8.533,27.022,15.644c11.378,12.8,15.644,27.022,15.644,42.667c0,18.489-5.689,32.711-18.489,42.667  c-4.267,2.844-7.111,5.689-8.533,5.689c-1.422,1.422-4.267,2.844-8.533,4.267c15.644,2.844,27.022,9.956,35.556,19.911  c8.533,9.956,12.8,22.756,12.8,38.4c0,17.067-5.689,31.289-17.067,44.089C303.093,341.653,278.916,348.764,246.204,348.764z   M195.004,205.12h25.6c15.644,0,25.6-1.422,32.711-4.267c7.111-2.844,11.378-9.956,11.378-21.333s-2.844-18.489-9.956-21.333  c-7.111-2.844-18.489-5.689-34.133-5.689h-25.6L195.004,205.12L195.004,205.12z M195.004,303.253h36.978  c15.644,0,27.022-1.422,34.133-5.689c7.111-4.267,11.378-11.378,11.378-22.756c0-11.378-4.267-18.489-12.8-22.756  c-8.533-4.267-21.333-5.689-39.822-5.689h-31.289v56.889H195.004z" fill="#ffffff" data-original="#ffffff" class=""/>
<g xmlns="http://www.w3.org/2000/svg">
</g>
<g xmlns="http://www.w3.org/2000/svg">
</g>
<g xmlns="http://www.w3.org/2000/svg">
</g>
<g xmlns="http://www.w3.org/2000/svg">
</g>
<g xmlns="http://www.w3.org/2000/svg">
</g>
<g xmlns="http://www.w3.org/2000/svg">
</g>
<g xmlns="http://www.w3.org/2000/svg">
</g>
<g xmlns="http://www.w3.org/2000/svg">
</g>
<g xmlns="http://www.w3.org/2000/svg">
</g>
<g xmlns="http://www.w3.org/2000/svg">
</g>
<g xmlns="http://www.w3.org/2000/svg">
</g>
<g xmlns="http://www.w3.org/2000/svg">
</g>
<g xmlns="http://www.w3.org/2000/svg">
</g>
<g xmlns="http://www.w3.org/2000/svg">
</g>
<g xmlns="http://www.w3.org/2000/svg">
</g>
</g></svg>
