<?xml version="1.0" encoding="iso-8859-1"?>
<!-- Generator: Adobe Illustrator 19.0.0, SVG Export Plug-In . SVG Version: 6.00 Build 0)  -->
<svg xmlns="http://www.w3.org/2000/svg" xmlns:xlink="http://www.w3.org/1999/xlink" version="1.1" id="Layer_1" x="0px" y="0px" viewBox="0 0 511.983 511.983" style="enable-background:new 0 0 511.983 511.983;" xml:space="preserve" width="512" height="512">
<g id="XMLID_1368_">
	<g id="XMLID_2418_">
		<path id="XMLID_2035_" style="fill:#72D8FF;" d="M10,353.115h438v29.613c0,16.587-13.446,30.034-30.034,30.034H40.034    C23.446,412.762,10,399.315,10,382.728V353.115z"/>
		<path id="XMLID_2034_" style="fill:#FFFFFF;" d="M10,92.412c0-15.733,12.754-28.488,28.488-28.488h381.024    c15.733,0,28.488,12.754,28.488,28.488v260.704H10V92.412z"/>
		<path id="XMLID_2033_" style="fill:#72D8FF;" d="M141.778,501.924h174.53v-11.905c0-14.379-11.657-26.036-26.036-26.036H167.814    c-14.379,0-26.036,11.657-26.036,26.036V501.924z"/>
		<rect id="XMLID_2032_" x="197.043" y="412.762" style="fill:#C9F3FF;" width="64" height="51.221"/>
		<rect id="XMLID_1015_" x="107.037" y="240.192" style="fill:#4DBAF6;" width="56.976" height="63.801"/>
		<rect id="XMLID_1009_" x="199.622" y="208.52" style="fill:#A0E557;" width="56.976" height="95.473"/>
		<rect id="XMLID_1008_" x="292.207" y="165.708" style="fill:#FF5D5D;" width="56.976" height="138.285"/>
	</g>
	<g id="XMLID_2646_">
		<path id="XMLID_2651_" style="fill:#2E9DE3;" d="M412.946,140.929l81.811,81.811c9.657,9.657,9.657,25.315,0,34.972l0,0    c-9.657,9.657-25.315,9.657-34.972,0l-81.811-81.811L412.946,140.929z"/>
		<g id="XMLID_1946_">
			<circle id="XMLID_1957_" style="fill:#FFB954;" cx="337.889" cy="100.896" r="90.837"/>
			<g id="XMLID_1201_">
				<path id="XMLID_1205_" d="M221.97,374.381c-1.86,1.86-2.93,4.43-2.93,7.07c0,2.63,1.069,5.21,2.93,7.07      c1.86,1.859,4.44,2.93,7.07,2.93c2.64,0,5.21-1.07,7.069-2.93c1.87-1.86,2.931-4.44,2.931-7.07c0-2.641-1.061-5.21-2.931-7.07      c-1.859-1.87-4.439-2.93-7.069-2.93S223.83,372.511,221.97,374.381z"/>
				<path id="XMLID_1339_" d="M349.18,402.761c-2.63,0-5.21,1.07-7.07,2.931c-1.859,1.859-2.93,4.439-2.93,7.069      s1.07,5.21,2.93,7.07c1.86,1.86,4.44,2.93,7.07,2.93s5.21-1.069,7.07-2.93c1.859-1.86,2.93-4.44,2.93-7.07      s-1.07-5.21-2.93-7.069C354.39,403.831,351.81,402.761,349.18,402.761z"/>
				<path id="XMLID_1340_" d="M58.069,121.992c2.641,0,5.211-1.061,7.07-2.92c1.86-1.87,2.93-4.44,2.93-7.07      c0-2.64-1.069-5.22-2.93-7.08c-1.859-1.86-4.43-2.92-7.07-2.92c-2.63,0-5.21,1.06-7.069,2.92c-1.86,1.86-2.931,4.44-2.931,7.08      c0,2.63,1.07,5.2,2.931,7.07C52.859,120.931,55.439,121.992,58.069,121.992z"/>
				<path id="XMLID_1353_" d="M98.069,121.996h8.967c5.522,0,10-4.478,10-10s-4.478-10-10-10h-8.967c-5.522,0-10,4.478-10,10      S92.547,121.996,98.069,121.996z"/>
				<path id="XMLID_1359_" d="M98.069,164.729h8.967c5.522,0,10-4.478,10-10s-4.478-10-10-10h-8.967c-5.522,0-10,4.478-10,10      S92.547,164.729,98.069,164.729z"/>
				<path id="XMLID_1360_" d="M98.069,207.46h8.967c5.522,0,10-4.478,10-10s-4.478-10-10-10h-8.967c-5.522,0-10,4.478-10,10      S92.547,207.46,98.069,207.46z"/>
				<path id="XMLID_1364_" d="M501.828,215.668l-72.435-72.435c5.984-12.881,9.332-27.224,9.332-42.337      c0-55.602-45.235-100.837-100.837-100.837c-38.65,0-72.285,21.862-89.205,53.865H38.488C17.266,53.924,0,71.19,0,92.411v291.862      c0,21.222,17.266,38.487,38.488,38.487h148.555v31.222h-19.229c-19.87,0-36.035,16.165-36.035,36.035v11.906      c0,5.522,4.478,10,10,10h174.53c5.522,0,10-4.478,10-10v-11.906c0-19.87-16.166-36.035-36.036-36.035h-19.229v-31.222h38.141      c5.522,0,10-4.478,10-10s-4.478-10-10-10h-48.141h-64H38.488c-10.194,0-18.488-8.293-18.488-18.487v-21.158h418v21.158      c0,10.194-8.293,18.487-18.487,18.487h-30.329c-5.522,0-10,4.478-10,10s4.478,10,10,10h30.329      c21.222,0,38.487-17.266,38.487-38.487V269.13c5.658,3.789,12.308,5.825,19.271,5.825c9.277,0,17.998-3.613,24.558-10.173      C515.368,251.242,515.368,229.209,501.828,215.668z M306.309,490.018v1.906h-154.53v-1.906c0-8.842,7.193-16.035,16.035-16.035      h29.229h64h29.229C299.115,473.983,306.309,481.176,306.309,490.018z M251.043,422.761v31.222h-44v-31.222H251.043z       M337.889,20.059c44.573,0,80.837,36.264,80.837,80.837s-36.264,80.837-80.837,80.837s-80.836-36.264-80.836-80.837      S293.315,20.059,337.889,20.059z M302.207,195.205c11.098,4.213,23.124,6.527,35.682,6.527c0.433,0,0.863-0.011,1.294-0.016      v92.276h-36.976V195.205z M20,343.116V92.411c0-10.194,8.294-18.487,18.488-18.487h202.233      c-2.387,8.589-3.668,17.633-3.668,26.972c0,15.654,3.586,30.487,9.979,43.719l-18.289,18.289l-30.429-30.43      c-3.906-3.904-10.236-3.904-14.143,0l-38.19,38.19c-3.905,3.905-3.905,10.237,0,14.143c1.953,1.952,4.512,2.929,7.071,2.929      s5.118-0.977,7.071-2.929l31.119-31.119l30.429,30.429c3.905,3.904,10.235,3.905,14.143,0l22.005-22.004      c6.806,8.881,15.052,16.601,24.388,22.809v109.071h-15.609V208.52c0-5.522-4.478-10-10-10h-56.976c-5.522,0-10,4.478-10,10      v85.473h-15.61v-53.801c0-5.522-4.478-10-10-10h-56.976c-5.522,0-10,4.478-10,10v53.801H68.073V151.996c0-5.522-4.478-10-10-10      s-10,4.478-10,10v151.996c0,5.522,4.478,10,10,10h341.854c5.522,0,10-4.478,10-10s-4.478-10-10-10h-40.744v-94.53      c7.368-1.59,14.438-3.987,21.115-7.095L438,250.07v93.046H20z M246.598,293.993h-36.976V218.52h36.976V293.993z       M154.012,293.993h-36.976v-43.801h36.976V293.993z M487.686,250.641c-2.782,2.782-6.48,4.314-10.415,4.314      c-3.934,0-7.633-1.533-10.415-4.315l-68.842-68.842c7.912-5.895,14.932-12.922,20.822-20.838l68.851,68.852      C493.429,235.553,493.429,244.898,487.686,250.641z"/>
				<path id="XMLID_1388_" d="M337.889,130.425c-6.381,0-11.571-4.296-11.571-9.577c0-5.522-4.478-10-10-10s-10,4.478-10,10      c0,13.04,9.059,24.129,21.588,28.053c0.177,5.367,4.573,9.668,9.983,9.668c5.41,0,9.806-4.3,9.983-9.668      c12.53-3.924,21.589-15.012,21.589-28.053c0-16.309-14.163-29.577-31.572-29.577c-6.381,0-11.571-4.296-11.571-9.577      s5.19-9.577,11.571-9.577s11.572,4.296,11.572,9.577c0,5.522,4.478,10,10,10s10-4.478,10-10      c0-13.035-9.051-24.119-21.572-28.048v-0.423c0-5.522-4.478-10-10-10s-10,4.478-10,10v0.423      c-12.52,3.929-21.571,15.013-21.571,28.048c0,16.309,14.163,29.577,31.571,29.577c6.381,0,11.572,4.296,11.572,9.577      S344.27,130.425,337.889,130.425z"/>
			</g>
		</g>
	</g>
</g>















</svg>
