<?xml version="1.0"?>
<svg xmlns="http://www.w3.org/2000/svg" xmlns:xlink="http://www.w3.org/1999/xlink" xmlns:svgjs="http://svgjs.com/svgjs" version="1.1" width="512" height="512" x="0" y="0" viewBox="0 0 512.002 512.002" style="enable-background:new 0 0 512 512" xml:space="preserve" class=""><g><g xmlns="http://www.w3.org/2000/svg"><g clip-rule="evenodd" fill-rule="evenodd"><path d="m146.001 182.002h220c11 0 20-9 20-20s-9-20-20-20h-220c-11 0-20 9-20 20 0 11.001 9 20 20 20z" fill="#4da8da" data-original="#99ebfa" style="" class=""/><path d="m146.001 182.002h220v40h-220z" fill="#cff5fd" data-original="#cff5fd" style="" class=""/><path d="m366.001 222.002h-220-10c-22 0-40 18-40 40.001v199.999c0 22.001 18 40 40 40h240c22 0 40-17.999 40-40v-199.999c0-22.001-18-40.001-40-40.001z" fill="#cff5fd" data-original="#cff5fd" style="" class=""/><path d="m176.001 90c0 19.854 7.236 38.017 19.211 52.002h121.578c11.975-13.985 19.211-32.147 19.211-52.002 0-44.182-35.818-80-80-80-44.183 0-80 35.818-80 80z" fill="#ffc144" data-original="#ffc144" style=""/><path d="m216.002 262.004c-44.182 0-80 35.818-80 80s35.817 80 80 80c3.498 0 6.944-.226 10.324-.662-6.574-11.617-10.326-25.041-10.326-39.341 0-40.683 30.368-74.273 69.672-79.338-13.737-24.274-39.789-40.659-69.67-40.659z" fill="#ffcd69" data-original="#ffcd69" style=""/><path d="m285.671 302.661c-39.303 5.067-69.671 38.657-69.671 79.34 0 14.3 3.752 27.724 10.326 39.341 13.736 24.275 39.792 40.659 69.674 40.659 44.183 0 80-35.817 80-80s-35.817-80-80-80c-3.5 0-6.947.225-10.329.66z" fill="#ffc144" data-original="#ffc144" style=""/></g><g><path d="m376.001 212.002v-21.72c11.639-4.128 20-15.243 20-28.28 0-16.542-13.458-30-30-30h-30.413c6.784-12.862 10.413-27.282 10.413-42.002 0-49.626-40.374-90-90-90s-90 40.374-90 90c0 14.721 3.629 29.141 10.413 42.002h-30.413c-16.542 0-30 13.458-30 30 0 13.036 8.361 24.152 20 28.28v21.72c-27.57 0-50 22.431-50 50.001v199.999c0 27.57 22.43 50 50 50h240c27.57 0 50-22.43 50-50v-199.999c0-27.57-22.429-50.001-50-50.001zm-190-122.002c0-38.598 31.402-70 70-70s70 31.402 70 70c0 15.174-4.962 29.93-14.023 42.002h-41.828c.783-.623 1.542-1.292 2.266-2.016 5.036-5.037 7.811-11.733 7.811-18.856s-2.774-13.819-7.811-18.856l-18.688-18.688c-1.259-1.259-1.953-2.934-1.953-4.714s.693-3.455 1.953-4.714c1.259-1.26 2.933-1.953 4.713-1.953s3.455.693 4.714 1.953c3.906 3.904 10.236 3.904 14.143 0 3.905-3.905 3.905-10.237 0-14.143-3.201-3.2-7.073-5.483-11.297-6.725v-3.29c0-5.522-4.478-10-10-10s-10 4.478-10 10v5.273c-2.333 1.234-4.495 2.822-6.415 4.742-5.037 5.037-7.811 11.733-7.811 18.856s2.774 13.819 7.811 18.856l18.688 18.688c2.6 2.6 2.6 6.828 0 9.428-2.599 2.6-6.829 2.6-9.428 0-3.905-3.904-10.237-3.904-14.143 0-3.905 3.905-3.905 10.237 0 14.143.724.724 1.483 1.392 2.266 2.016h-36.946c-9.061-12.071-14.022-26.828-14.022-42.002zm-40 62.002h220c5.514 0 10 4.486 10 10s-4.486 10-10 10h-220c-5.514 0-10-4.486-10-10s4.486-10 10-10zm260 310c0 16.542-13.458 30-30 30h-240c-16.542 0-30-13.458-30-30v-199.999c0-16.543 13.458-30.001 30-30.001h74.997c5.523 0 10-4.478 10-10s-4.477-10-10-10h-54.997v-20h200v20h-55.004c-5.522 0-10 4.478-10 10s4.478 10 10 10h75.004c16.542 0 30 13.458 30 30.001z" fill="#000000" data-original="#000000" style="" class=""/><path d="m296 292.001c-1.703 0-3.395.052-5.075.146-16.753-25.205-44.478-40.143-74.923-40.143-49.626 0-90 40.374-90 90s40.374 90 90 90c1.694 0 3.398-.062 5.1-.157 16.151 24.189 43.694 40.155 74.898 40.155 49.626 0 89.999-40.374 89.999-90s-40.373-90.001-89.999-90.001zm-149.998 50.003c0-38.598 31.402-70 70-70 20.675 0 39.74 8.861 52.923 24.161-8.533 2.698-16.518 6.636-23.747 11.6-8.091-6.888-18.434-10.762-29.176-10.762-24.813 0-45 20.188-45 45.001 0 21.329 14.753 39.337 35.088 43.889.387 9.047 2.116 17.75 4.992 25.919-36.309-2.537-65.08-32.866-65.08-69.808zm61.519 23.5c-9.728-3.489-16.519-12.722-16.519-23.5 0-13.785 11.215-25.001 25-25.001 4.931 0 9.712 1.468 13.76 4.135-11.202 12.182-19.094 27.45-22.241 44.366zm88.479 86.497c-38.598 0-70-31.402-70-70s31.402-70 70-70 69.999 31.402 69.999 70-31.401 70-69.999 70z" fill="#000000" data-original="#000000" style="" class=""/><path d="m303.155 356.158c3.906 3.904 10.236 3.904 14.143 0 3.905-3.905 3.905-10.237 0-14.143-3.259-3.259-7.159-5.495-11.297-6.711v-3.304c0-5.522-4.478-10-10-10s-10 4.478-10 10v5.282c-2.309 1.216-4.476 2.793-6.416 4.732-10.397 10.397-10.397 27.315 0 37.713l18.688 18.688c2.6 2.6 2.6 6.828 0 9.428s-6.828 2.6-9.428 0c-3.906-3.904-10.236-3.904-14.143 0-3.905 3.905-3.905 10.237 0 14.143 3.259 3.259 7.159 5.495 11.298 6.711v3.303c0 5.522 4.478 10 10 10s10-4.478 10-10v-5.283c2.309-1.216 4.475-2.793 6.415-4.732 10.397-10.397 10.397-27.315 0-37.713l-18.688-18.688c-2.6-2.6-2.6-6.828 0-9.428s6.828-2.597 9.428.002z" fill="#000000" data-original="#000000" style="" class=""/><path d="m256.001 232.002c5.523 0 10-4.478 10-10s-4.477-10-10-10h-.007c-5.523 0-9.996 4.478-9.996 10s4.48 10 10.003 10z" fill="#000000" data-original="#000000" style="" class=""/></g></g></g></svg>
