<svg xmlns="http://www.w3.org/2000/svg" viewBox="0 0 500 500" xmlns:v="https://vecta.io/nano"><g fill="#ffcd01"><circle cx="257.2" cy="263.7" r="161.3"/><path d="M414.3 125L376 147.5l99.9 57.4V89l-37.4 21.8c-45.4-51.6-102-80.4-170.6-83.6-58.3-2.7-110.8 14.4-156.7 50.5C20.4 149.2-5.6 275.3 49.4 376.3c55.2 101.3 174.9 148.6 283.9 111.4 112.1-38.3 162.9-143.1 160.2-223.8h-26.2c-2.2 70.7-30.8 128.1-88.2 170-40 29.3-85.4 41.3-134.9 38.9C152 468.4 69.6 396.7 52 305.1c-18.6-96.9 30-192 119-232.4 86.7-39.3 185.8-14.2 243.3 52.3z"/></g><path d="M320.3 167.9c-1.3 1.7-2.5 3.5-4 5-6.3 6.4-12.5 12.9-19.1 19-3.2 3-3.8 5.6-1.5 9.1.2.3.4.8.5 1.2 2.7 14.6 13.6 20.4 26.3 24 1.6.5 4.3-.5 5.7-1.7 7-6.6 13.7-13.5 20.5-20.3 1.4-1.3 3-2.4 4.9-4 .8 1.6 1.5 2.5 1.4 3-3.1 10.2-4.9 20.9-9.7 30.3-9.1 17.8-30.1 25.4-49.5 19.1-4-1.3-6.3-.7-9.2 2.2l-75.7 75.9c-1.7 1.7-2.8 4.5-3 7-1.2 14.2-11.2 24-24.9 23.8-13-.2-23.4-10.6-23.6-23.6-.2-13.5 9.7-23.7 23.9-24.8 2.4-.2 5.2-1.4 6.9-3l75.9-75.7c2.9-2.9 3.4-5.3 2.1-9.2-7.4-22.9 5.2-46.7 28.2-53.6 7.5-2.2 15.1-4 22.6-5.9.5.7.9 1.4 1.3 2.2zM183.4 325.7c-6.3 0-11.6 5.2-11.7 11.5-.1 6.5 5.2 12 11.8 12s12-5.6 11.8-12.1c-.3-6.4-5.6-11.5-11.9-11.4zm35.5 11c6.2-5.8 11.4-11 16.8-15.7 1.1-.9 3.5-1.1 5-.6 34.2 10.3 72.5-13.6 75.3-53.4 0-.4.2-.8.5-1.7 13-2.6 24.2-8.7 33.2-19 2.9-3.3 8.2-.8 8.4 4 .4 9 .5 18-.2 26.9-.1 1.9-4.3 5.3-6.2 5-11-1.6-17 2.7-18.9 13.4-.2 1.2-.8 2.4-1.6 3.4-3.9 5.6-2.9 9.9 2.2 14.6 8.7 7.9 8.4 8.5.1 16.7l-12.8 12.9c-3.6 3.7-7.5 4.4-10.6.1-6.2-8.6-13.2-9.7-21.7-3.7-.7.5-1.6.6-2.3.9-10.3 3.9-10.3 3.9-10.3 15.2 0 7.9-1.2 9.2-8.9 9.2-6.9 0-13.8-.1-20.7 0-5.4.1-8.3-2-8-7.8.1-2.3-.1-4.6 0-6.9.3-4.4-1.8-6.9-6-8.3-3.9-1.2-7.8-3-13.3-5.2zM184 302c-2.1-5.4-3.8-9-4.9-12.8-1.4-5-4.3-6.9-9.6-6.9-13.6.1-13.6-.1-13.6-13.8v-16.3c0-4.8 2.1-8 7.1-7.2 10.7 1.8 16.5-2.7 18.4-13.1.2-1 .8-1.9 1.3-2.9 4.3-9.1 4.3-9.1-2.7-16-7.3-7.3-7.3-8.1.2-15.5l13.7-13.7c3.5-3.6 7.2-3.8 10.1.1 6.1 8.3 13.1 10.1 21.6 3.8.5-.4 1.2-.5 1.7-.7 10.9-4 11.2-2 11.1-15.9-.1-7.4 1.3-8.7 8.7-8.8 7.1 0 14.2-.3 21.3.2 2.5.2 5.7 1.9 6.9 3.9.7 1.2-1.2 4.9-2.9 6.5-7.7 7.5-13.2 16.2-15.5 26.7-.8 3.5-2.1 5-5.9 5.5-37.8 5.5-59.3 37.4-50.6 74.6.4 1.8 0 4.6-1.2 6-4.5 5.4-9.4 10.2-15.2 16.3zm135.6-118.7l18.3 18.4-13.7 11.6c-2.3 1.9-11.8-1.8-13.9-5.3-4.8-7.9-4.5-9.3 1.8-15.8 2.5-2.7 4.7-5.7 7.5-8.9z" fill="#414042"/></svg>