<svg xmlns="http://www.w3.org/2000/svg" viewBox="0 0 500 500" xmlns:v="https://vecta.io/nano"><g fill="#019a01"><circle cx="239.2" cy="240.6" r="161.3"/><path d="M396.4 102l-38.3 22.5 99.9 57.4V66l-37.4 21.8C375.1 36.2 318.5 7.4 250 4.2 191.7 1.5 139.1 18.6 93.2 54.7 2.4 126.2-23.5 252.2 31.5 353.3c55.2 101.3 174.9 148.6 283.9 111.4 112.1-38.3 162.9-143.1 160.2-223.8h-26.2c-2.2 70.7-30.8 128.1-88.2 170-40 29.3-85.4 41.3-134.9 38.9-92.1-4.4-174.6-76.2-192.2-167.8C15.4 185.1 64 90 153 49.7c86.7-39.3 185.8-14.3 243.4 52.3z"/></g><path d="M150 323.6l.1-54.2c0-1 .6-2.3 1.4-2.9 11.9-9.5 24.9-16.8 40.3-18.8 7.2-.9 14.1 1 21.1 2.5 14.1 2.9 28.3 6 42.6 8 9.4 1.3 19.1.8 28.6.9 5.7.1 11.4-.1 17.1 0 5.2.1 9.4 3.6 10.1 8.3.8 4.9-1.8 9.7-6.6 11.2-1.9.6-4 .7-6 .7h-61.1c-1.3 0-2.9-.2-4 .4-1.1.7-2.6 2.3-2.5 3.3.2 1.2 1.7 2.4 2.9 3.3.7.5 1.9.1 2.8.1l62.5-.1c3.7 0 7.7-.9 11.1-2.4l46.6-20.3 14.1-5.9c3.7-1.4 7.3-.3 9.2 2.7 1.9 2.9 1.6 6.6-.9 9-1 .9-2.2 1.6-3.4 2.2l-60.1 33c-4.4 2.4-8.8 4.8-13 7.6-8.9 5.9-18.9 8-29.3 8.6-15.2.8-29.9-1.5-44.6-5.3-15.2-3.9-30.8-5.2-46.5-3.3-11 1.3-21.5 4.4-30.9 10.6l-1.5.9c.4 0 .3-.1-.1-.1zm132.6-137.9c-13.7-.1-25.1 10.9-25.2 24.5-.1 13.4 11 24.4 24.8 24.6 13.6.2 24.9-10.8 25-24.5.1-13.3-11-24.4-24.6-24.6zm3.3 12.3c.5.7.9 1.5 1.1 2.4.1.3.2.3.5.3h4.5c.1 0 .3.1.4.1-.1.1-.1.3-.2.4-.4.7-.9 1.5-1.3 2.2-.1.2-.3.4-.6.3h-2.6c-.3 0-.5.1-.5.5-.3 1.8-1.2 3.4-2.7 4.6-1.5 1.3-3.2 2-5.1 2.4-.5.1-1 .2-1.7.3l11.4 14.6c-.2 0-.3.1-.4.1h-4.2c-.3 0-.4-.1-.6-.3-1.4-1.8-2.8-3.5-4.1-5.3l-6.3-8.2c-.1-.2-.2-.4-.2-.6v-2.1c0-.5 0-.5.5-.5 1.3 0 2.5 0 3.8-.1 1.5-.2 3-.7 4.1-1.8.9-.8 1.3-1.8 1.5-2.9.1-.4 0-.5-.4-.5h-9.6-.9c.2-.3.3-.5.4-.7.4-.7.8-1.4 1.2-2 .1-.3.3-.3.6-.3h7.7c.2 0 .3-.1.5-.1-.1-.2-.1-.3-.2-.5-.7-1.1-1.7-1.7-2.9-2-1.2-.4-2.5-.4-3.8-.4h-3.2c-.4 0-.4-.1-.2-.4.5-.8 1-1.6 1.5-2.5.1-.1.2-.2.4-.2h1.2 16.6.5c-.1.2-.1.3-.2.4l-1.4 2.3c-.2.3-.4.4-.7.4h-3.8-.6c0-.1 0 0 0 .1zm-50.4-12.2c-.2 15.8-13.2 28.5-28.8 28.2-15.9-.3-28.7-13-28.6-28.4.1-15.7 13.2-28.4 29-28.2s28.6 13 28.4 28.4zm-26.3 19.7c0-.5.1-.9.1-1.3-.2-1.5.4-2.1 1.8-2.6 2.6-.8 4.5-2.7 5.2-5.3 1.1-3.9.3-7.5-2.9-10.1-1.5-1.2-3.2-2.2-4.8-3.3-1.3-.9-2.6-1.6-3.8-2.6-1.3-1.1-1.5-2.8-.8-4.1.7-1.1 2.3-1.6 3.9-1.2 1.4.4 1.9 1.4 2.3 2.7.1.4.6.9 1 1 1.4.1 2.8.1 4.2 0 .3 0 .9-.7.9-1-.3-2.9-1.3-5.4-4-7-.9-.5-2.3-.6-2.8-1.3-.5-.8-.3-2.1-.4-3.3h-2.8c-2 0-2 0-1.9 1.9.1 1.1-.3 1.7-1.4 2-1.9.6-3.3 1.8-4.3 3.5-2 3.5-1.2 8.1 2 10.9 1.9 1.6 4.1 2.8 6.1 4.3 1.1.8 2.3 1.7 3.1 2.7 1.4 1.7.7 4.2-1.2 5.1-2.6 1.1-4.9 0-5.6-2.8-.1-.4-.5-.9-.7-.9-1.8-.1-3.5 0-5.4 0 .1 5.2 2.5 8.4 7.2 9.6.2 3.5.2 3.5 3.7 3.4.4-.3.7-.3 1.3-.3zm-86.4 90v-37.3c0-2.3.6-3.3 3.1-3.2 4.8.2 9.6.1 14.5 0 1.9 0 2.5.6 2.5 2.5v75.8c0 2.1-.8 2.7-2.7 2.6-4.6-.1-9.3-.2-13.9 0-2.6.1-3.5-.7-3.5-3.4v-37zm134.8-171.6c-12.1-.1-22 9.6-22.1 21.5-.1 11.8 9.6 21.4 21.8 21.6 11.9.2 21.8-9.5 22-21.5.1-11.7-9.7-21.4-21.7-21.6zm9 13c-.4.9-.8 1.9-1.2 2.9-2.6-3.1-5.8-4.3-9.6-2.9-2.3.8-3.9 2.5-4.9 5h13.6l-.9 2.3c-.1.1-.4.2-.6.2h-11.7-.8v1.4H263l-.9 2.3c-.1.1-.4.2-.6.2h-9.4-.7c2 5 9.6 7.1 14 1.5v4.2c0 .2-.2.5-.4.7-6 4-14.2 1.3-16.8-5.5-.2-.6-.5-.9-1.2-.8-.8.1-1.5 0-2.4 0 .3-.8.6-1.6 1-2.3 0-.1.3-.1.4-.1h1.4v-1.4h-2.8c.3-.8.6-1.5.9-2.2.1-.1.3-.3.5-.2 1.3.3 1.8-.4 2.3-1.6 2.9-7.5 12.4-9.7 18.2-4.2.1-.1.2.1.1.5z" fill="#fff"/></svg>