<?xml version="1.0"?>
<svg xmlns="http://www.w3.org/2000/svg" xmlns:xlink="http://www.w3.org/1999/xlink" xmlns:svgjs="http://svgjs.com/svgjs" version="1.1" width="512" height="512" x="0" y="0" viewBox="0 0 74 74" style="enable-background:new 0 0 512 512" xml:space="preserve" class=""><g><g xmlns="http://www.w3.org/2000/svg" id="color_line" data-name="color line"><path d="m66.277 69.188v-9.933a13.813 13.813 0 0 0 -9.358-13.075l-13.119-3.319-6.8 5.508-7.011-5.455-12.908 3.266a13.813 13.813 0 0 0 -9.358 13.075v9.932z" fill="#4da8da" data-original="#05afd6" style="" class=""/><path d="m66.28 59.26v9.93h-58.56v-3.25h55.06v-9.93a13.714 13.714 0 0 0 -2.82-8.35 13.8 13.8 0 0 1 6.32 11.6z" fill="#27a2db" data-original="#27a2db" style=""/><path d="m33.77 48.397h6.472l-1.404 3.694h-3.664z" fill="#fe7058" data-original="#fe7058" style=""/><path d="m38.839 52.591h-3.665a.5.5 0 0 1 -.468-.322l-1.4-3.693a.5.5 0 0 1 .468-.678h6.473a.5.5 0 0 1 .468.678l-1.4 3.693a.5.5 0 0 1 -.476.322zm-3.32-1h2.976l1.023-2.691h-5.024z" fill="#323c6b" data-original="#323c6b" style="" class=""/><path d="m41.19 64.887-4.19 4.301-4.178-4.301 2.352-12.796h3.664z" fill="#fe7058" data-original="#fe7058" style=""/><path d="m37 69.688a.5.5 0 0 1 -.358-.151l-4.178-4.3a.5.5 0 0 1 -.134-.439l2.352-12.798a.5.5 0 0 1 .492-.41h3.665a.5.5 0 0 1 .492.41l2.352 12.8a.5.5 0 0 1 -.134.439l-4.19 4.3a.5.5 0 0 1 -.359.149zm-3.64-4.964 3.64 3.747 3.651-3.748-2.228-12.132h-2.833z" fill="#323c6b" data-original="#323c6b" style="" class=""/><path d="m29.244 38.793h15.475a0 0 0 0 1 0 0v3.215a6.361 6.361 0 0 1 -6.361 6.361h-2.753a6.361 6.361 0 0 1 -6.361-6.361v-3.215a0 0 0 0 1 0 0z" fill="#84879c" data-original="#84879c" style="" class=""/><path d="m44.669 38.793a18.7 18.7 0 0 1 3.854-7.548 15.165 15.165 0 0 0 -12.623-24.833c-7.662.471-13.854 6.127-14.191 13.8a16.826 16.826 0 0 0 3.556 11.108 18.484 18.484 0 0 1 3.979 7.473z" fill="#fcd462" data-original="#fcd462" style=""/><path d="m49.914 23.683a16.567 16.567 0 0 1 -3.141 9.734h.357a19.408 19.408 0 0 1 1.3-1.766 15.154 15.154 0 0 0 -22.489-20.286 15.012 15.012 0 0 1 7.847-2.822 15.167 15.167 0 0 1 16.126 15.14z" fill="#f7be56" data-original="#f7be56" style=""/><g fill="#323c6b"><path d="m44.669 39.293h-15.425a.5.5 0 0 1 -.487-.386 18.1 18.1 0 0 0 -3.874-7.264 17.214 17.214 0 0 1 -3.672-11.456c.343-7.769 6.509-13.772 14.661-14.273a15.555 15.555 0 0 1 11.72 4.22 15.666 15.666 0 0 1 1.314 21.431 18.125 18.125 0 0 0 -3.751 7.344.5.5 0 0 1 -.486.384zm-15.034-1h14.643a19.227 19.227 0 0 1 3.86-7.369 14.666 14.666 0 0 0 -12.205-24.013c-7.633.469-13.403 6.071-13.722 13.319a16.4 16.4 0 0 0 3.435 10.77 19.378 19.378 0 0 1 3.989 7.293z" fill="#323c6b" data-original="#323c6b" style="" class=""/><path d="m38.357 48.869h-2.752a6.869 6.869 0 0 1 -6.861-6.861v-3.215a.5.5 0 0 1 .5-.5h15.475a.5.5 0 0 1 .5.5v3.215a6.869 6.869 0 0 1 -6.862 6.861zm-8.613-9.576v2.715a5.868 5.868 0 0 0 5.861 5.861h2.752a5.868 5.868 0 0 0 5.861-5.861v-2.715z" fill="#323c6b" data-original="#323c6b" style="" class=""/><path d="m37 4.766a.5.5 0 0 1 -.5-.5v-3.078a.5.5 0 0 1 1 0v3.078a.5.5 0 0 1 -.5.5z" fill="#323c6b" data-original="#323c6b" style="" class=""/><path d="m28.332 7.015a.5.5 0 0 1 -.433-.25l-1.539-2.665a.5.5 0 1 1 .865-.5l1.539 2.666a.5.5 0 0 1 -.433.75z" fill="#323c6b" data-original="#323c6b" style="" class=""/><path d="m21.95 13.3a.5.5 0 0 1 -.25-.067l-2.666-1.539a.5.5 0 0 1 .5-.866l2.666 1.534a.5.5 0 0 1 -.25.933z" fill="#323c6b" data-original="#323c6b" style="" class=""/><path d="m19.563 21.926h-3.078a.5.5 0 0 1 0-1h3.078a.5.5 0 0 1 0 1z" fill="#323c6b" data-original="#323c6b" style="" class=""/><path d="m19.146 32.133a.5.5 0 0 1 -.25-.933l2.667-1.54a.5.5 0 0 1 .5.866l-2.663 1.54a.5.5 0 0 1 -.254.067z" fill="#323c6b" data-original="#323c6b" style="" class=""/><path d="m45.668 7.015a.5.5 0 0 1 -.433-.75l1.539-2.665a.5.5 0 1 1 .865.5l-1.539 2.665a.5.5 0 0 1 -.432.25z" fill="#323c6b" data-original="#323c6b" style="" class=""/><path d="m52.05 13.3a.5.5 0 0 1 -.25-.933l2.666-1.539a.5.5 0 0 1 .5.866l-2.666 1.535a.5.5 0 0 1 -.25.071z" fill="#323c6b" data-original="#323c6b" style="" class=""/><path d="m57.515 21.926h-3.078a.5.5 0 0 1 0-1h3.078a.5.5 0 0 1 0 1z" fill="#323c6b" data-original="#323c6b" style="" class=""/><path d="m54.854 32.133a.5.5 0 0 1 -.25-.067l-2.667-1.54a.5.5 0 0 1 .5-.866l2.663 1.54a.5.5 0 0 1 -.25.933z" fill="#323c6b" data-original="#323c6b" style="" class=""/><path d="m66.277 69.688h-58.554a.5.5 0 0 1 -.5-.5v-9.933a14.311 14.311 0 0 1 9.7-13.548l12.757-3.33a.5.5 0 0 1 .43.087l6.89 5.275 6.8-5.2a.5.5 0 0 1 .427-.088l12.819 3.244a14.321 14.321 0 0 1 9.735 13.56v9.933a.5.5 0 0 1 -.504.5zm-58.055-1h57.555v-9.433a13.312 13.312 0 0 0 -9.02-12.6l-12.545-3.175-6.912 5.286a.5.5 0 0 1 -.607 0l-7-5.359-12.486 3.257a13.3 13.3 0 0 0 -8.984 12.591z" fill="#323c6b" data-original="#323c6b" style="" class=""/></g><path d="m45.071 42.193-8.071 6.176 6.021 3.367 3.611-8.097z" fill="#ffffff" data-original="#ffffff" style=""/><path d="m43.021 52.236a.5.5 0 0 1 -.244-.063l-6.021-3.367a.5.5 0 0 1 -.06-.833l8.07-6.176a.5.5 0 0 1 .644.03l1.562 1.446a.5.5 0 0 1 .117.57l-3.61 8.1a.5.5 0 0 1 -.3.271.5.5 0 0 1 -.158.022zm-5.113-3.936 4.88 2.729 3.241-7.27-.989-.917z" fill="#323c6b" data-original="#323c6b" style="" class=""/><path d="m28.929 42.193 8.071 6.176-6.021 3.367-3.611-8.097z" fill="#ffffff" data-original="#ffffff" style=""/><path d="m30.979 52.236a.5.5 0 0 1 -.157-.025.5.5 0 0 1 -.3-.271l-3.61-8.1a.5.5 0 0 1 .117-.57l1.562-1.446a.5.5 0 0 1 .644-.03l8.07 6.176a.5.5 0 0 1 -.06.833l-6.021 3.367a.5.5 0 0 1 -.245.066zm-3.008-8.474 3.241 7.27 4.88-2.729-7.132-5.457z" fill="#323c6b" data-original="#323c6b" style="" class=""/><path d="m69.277 72.688h-4.027a.5.5 0 0 1 0-1h3.527v-5.157a.5.5 0 0 1 1 0v5.656a.5.5 0 0 1 -.5.501z" fill="#323c6b" data-original="#323c6b" style="" class=""/><path d="m69.277 64.927a.5.5 0 0 1 -.5-.5v-.6a.5.5 0 0 1 1 0v.6a.5.5 0 0 1 -.5.5z" fill="#323c6b" data-original="#323c6b" style="" class=""/><path d="m24.532 46.562.552-.154a.583.583 0 0 1 .72.413.591.591 0 0 1 -.067.472.607.607 0 0 1 -.344.257l-.544.152a.592.592 0 1 1 -.318-1.14z" fill="#ffffff" data-original="#ffffff" style=""/><path d="m22.68 48.28-7.44 2.105a.592.592 0 1 1 -.318-1.14l7.439-2.106a.593.593 0 0 1 .662.883.625.625 0 0 1 -.343.258z" fill="#ffffff" data-original="#ffffff" style=""/></g></g></svg>
