<?xml version="1.0"?>
<svg xmlns="http://www.w3.org/2000/svg" xmlns:xlink="http://www.w3.org/1999/xlink" xmlns:svgjs="http://svgjs.com/svgjs" version="1.1" width="512" height="512" x="0" y="0" viewBox="0 0 512 512" style="enable-background:new 0 0 512 512" xml:space="preserve" class=""><g transform="matrix(6.123233995736766e-17,-1,1,6.123233995736766e-17,-0.0001277923583984375,511.9998722076416)">
<g xmlns="http://www.w3.org/2000/svg">
	<g>
		<path d="M490.667,0c-11.782,0-21.333,9.551-21.333,21.333v277.333c0,94.842-75.825,170.667-170.667,170.667    S128,393.509,128,298.667V72.837l48.915,48.915c8.331,8.331,21.839,8.331,30.17,0c8.331-8.331,8.331-21.839,0-30.17L121.752,6.248    c-0.497-0.497-1.02-0.967-1.564-1.413c-0.246-0.202-0.505-0.377-0.757-0.566c-0.305-0.228-0.603-0.464-0.92-0.676    c-0.303-0.203-0.617-0.378-0.928-0.564c-0.286-0.171-0.567-0.351-0.862-0.509c-0.317-0.17-0.643-0.313-0.967-0.466    c-0.307-0.145-0.61-0.299-0.925-0.43c-0.315-0.13-0.636-0.235-0.956-0.35c-0.337-0.121-0.67-0.25-1.015-0.355    c-0.32-0.097-0.645-0.168-0.968-0.249c-0.351-0.089-0.698-0.187-1.056-0.258c-0.375-0.074-0.753-0.118-1.13-0.172    c-0.311-0.044-0.618-0.104-0.933-0.135c-1.4-0.138-2.811-0.138-4.211,0c-0.315,0.031-0.621,0.09-0.932,0.135    c-0.378,0.054-0.756,0.098-1.13,0.173c-0.358,0.071-0.704,0.169-1.055,0.258c-0.324,0.081-0.649,0.152-0.969,0.249    c-0.344,0.104-0.677,0.233-1.013,0.354c-0.32,0.115-0.642,0.22-0.957,0.35c-0.315,0.131-0.617,0.284-0.924,0.429    c-0.324,0.153-0.65,0.296-0.968,0.466c-0.295,0.158-0.575,0.338-0.861,0.509c-0.311,0.186-0.626,0.362-0.929,0.565    c-0.316,0.212-0.614,0.447-0.918,0.675c-0.253,0.19-0.512,0.365-0.759,0.567c-0.544,0.446-1.067,0.916-1.564,1.413L6.248,91.582    c-8.331,8.331-8.331,21.839,0,30.17c8.331,8.331,21.839,8.331,30.17,0l48.915-48.915v225.83    C85.333,417.073,180.261,512,298.667,512S512,417.073,512,298.667V21.333C512,9.551,502.449,0,490.667,0z" fill="#4da8da" data-original="#000000" style="" class=""/>
	</g>
</g>
<g xmlns="http://www.w3.org/2000/svg">
</g>
<g xmlns="http://www.w3.org/2000/svg">
</g>
<g xmlns="http://www.w3.org/2000/svg">
</g>
<g xmlns="http://www.w3.org/2000/svg">
</g>
<g xmlns="http://www.w3.org/2000/svg">
</g>
<g xmlns="http://www.w3.org/2000/svg">
</g>
<g xmlns="http://www.w3.org/2000/svg">
</g>
<g xmlns="http://www.w3.org/2000/svg">
</g>
<g xmlns="http://www.w3.org/2000/svg">
</g>
<g xmlns="http://www.w3.org/2000/svg">
</g>
<g xmlns="http://www.w3.org/2000/svg">
</g>
<g xmlns="http://www.w3.org/2000/svg">
</g>
<g xmlns="http://www.w3.org/2000/svg">
</g>
<g xmlns="http://www.w3.org/2000/svg">
</g>
<g xmlns="http://www.w3.org/2000/svg">
</g>
</g></svg>
