<svg width="327" height="71" viewBox="0 0 327 71" fill="none" xmlns="http://www.w3.org/2000/svg">
<path d="M44.9341 47.7186C38.0128 54.5854 31.1278 61.4704 24.2428 68.3554C23.6796 68.9186 23.0438 69.3001 22.2263 69.2819C21.4089 69.2637 20.7912 68.8641 20.2281 68.3009C15.0325 63.1054 9.837 57.928 4.64146 52.7325C3.40616 51.5153 2.17086 50.28 0.953726 49.0447C-0.317909 47.7731 -0.317909 46.3743 0.953726 45.1027C7.83872 38.2177 14.7419 31.3509 21.6269 24.4477C22.081 23.9935 22.2808 24.0844 22.6623 24.484C30.0741 31.8958 37.486 39.2895 44.9159 46.6831C45.2974 47.0828 45.3883 47.2826 44.9341 47.7186Z" fill="#0074A8"/>
<path d="M68.349 24.3027C68.2036 24.4844 68.022 24.6479 67.8585 24.8114C61.0643 31.6055 54.252 38.3815 47.476 45.1757C46.9673 45.6843 46.713 45.7752 46.1499 45.212C38.8107 37.8365 31.4534 30.4974 24.0779 23.1764C23.6056 22.7223 23.6238 22.5043 24.0779 22.0501C30.9811 15.1833 37.8842 8.2983 44.7692 1.41331C45.3142 0.868324 45.9319 0.523167 46.4769 0.541333C47.3852 0.559499 47.9483 0.777493 48.4206 1.24981C55.015 7.82598 61.6093 14.4021 68.2036 20.9965C69.1301 21.923 69.1664 23.2854 68.349 24.3027Z" fill="#E41736"/>
<path d="M52.4551 22.6675C52.4551 25.8103 49.8574 28.3899 46.7328 28.3717C43.6082 28.3535 41.0649 25.8103 41.0649 22.7038C41.0649 19.5248 43.5719 16.9815 46.7328 16.9452C49.8392 16.927 52.4551 19.5429 52.4551 22.6675Z" fill="white"/>
<path d="M8.12843 47.1198C8.01943 44.086 10.5264 41.4338 13.5783 41.3248C16.7937 41.2158 19.446 43.6682 19.555 46.8473C19.664 49.9174 17.157 52.5878 14.0506 52.6968C10.8897 52.824 8.25559 50.3352 8.12843 47.1198Z" fill="white"/>
<path d="M36.3592 47.2643C36.341 50.4071 33.7251 52.9867 30.6005 52.9322C27.4396 52.8958 24.9326 50.3526 24.9508 47.1735C24.9689 44.0852 27.5486 41.5238 30.655 41.5238C33.7796 41.5238 36.3773 44.1397 36.3592 47.2643Z" fill="white"/>
<path d="M324.44 40.5246C324.44 40.4338 324.422 40.3611 324.385 40.3066C324.349 40.2521 324.295 40.1976 324.222 40.1613C324.167 40.1431 324.113 40.125 324.04 40.1068C323.968 40.1068 323.895 40.1068 323.804 40.1068H323.513V41.0151H323.75C323.859 41.0151 323.968 40.9969 324.04 40.9969C324.131 40.9788 324.186 40.9606 324.258 40.9061C324.313 40.8698 324.349 40.8153 324.385 40.7608C324.422 40.6881 324.44 40.6154 324.44 40.5246ZM325.802 42.868H324.767L323.822 41.6327H323.513V42.868H322.678V39.4891H324.04C324.222 39.4891 324.385 39.5073 324.531 39.5255C324.676 39.5436 324.803 39.5981 324.912 39.6708C325.039 39.7435 325.13 39.8525 325.203 39.9615C325.276 40.0886 325.312 40.2339 325.312 40.4156C325.312 40.6699 325.257 40.8879 325.13 41.0514C325.021 41.2149 324.858 41.3421 324.658 41.4329L325.802 42.868Z" fill="#0074A8"/>
<path d="M325.783 42.9781C325.329 43.4323 324.693 43.7229 323.985 43.7229C323.276 43.7229 322.641 43.4323 322.186 42.9781C321.732 42.5239 321.442 41.8881 321.442 41.1797C321.442 40.4712 321.732 39.8353 322.186 39.3812C322.641 38.927 323.276 38.6364 323.985 38.6364C324.693 38.6364 325.329 38.927 325.783 39.3812C326.237 39.8353 326.528 40.4712 326.528 41.1797C326.528 41.8881 326.237 42.5058 325.783 42.9781ZM323.985 38.1641C322.314 38.1641 320.969 39.5084 320.969 41.1797C320.969 42.8509 322.314 44.1952 323.985 44.1952C325.656 44.1952 327 42.8509 327 41.1797C327 39.5084 325.656 38.1641 323.985 38.1641Z" fill="#0074A8"/>
<path d="M35.6879 65.4139C35.6879 65.3231 35.6697 65.2504 35.6334 65.1959C35.5971 65.1414 35.5426 65.0869 35.4699 65.0506C35.4154 65.0324 35.3609 65.0142 35.2882 65.0142C35.2156 64.9961 35.1429 64.9961 35.0521 64.9961H34.7614V65.9044H34.9976C35.1066 65.9044 35.2156 65.8862 35.2882 65.8862C35.3791 65.868 35.4336 65.8499 35.5062 65.7954C35.5607 65.7409 35.5971 65.7045 35.6334 65.65C35.6697 65.5955 35.6879 65.5047 35.6879 65.4139ZM37.0504 67.7573H36.0149L35.0703 66.522H34.7614V67.7573H33.9258V64.3784H35.2882C35.4699 64.3784 35.6334 64.3966 35.7787 64.4147C35.9241 64.4329 36.0512 64.4874 36.1602 64.5601C36.2874 64.6327 36.3782 64.7417 36.4509 64.8507C36.5235 64.9779 36.5599 65.1232 36.5599 65.3049C36.5599 65.5592 36.5054 65.7772 36.3782 65.9407C36.2692 66.1042 36.1057 66.2314 35.9059 66.3222L37.0504 67.7573Z" fill="#0074A8"/>
<path d="M37.0333 67.8645C36.5791 68.3186 35.9433 68.6093 35.2348 68.6093C34.5263 68.6093 33.8905 68.3186 33.4364 67.8645C32.9822 67.4103 32.6916 66.7563 32.6916 66.066C32.6916 65.3757 32.9822 64.7217 33.4364 64.2675C33.8905 63.8134 34.5263 63.5227 35.2348 63.5227C35.9433 63.5227 36.5791 63.8134 37.0333 64.2675C37.4874 64.7217 37.7781 65.3575 37.7781 66.066C37.7781 66.7745 37.4874 67.4103 37.0333 67.8645ZM35.2348 63.0504C33.5635 63.0504 32.2192 64.3947 32.2192 66.066C32.2192 67.7373 33.5635 69.0816 35.2348 69.0816C36.9061 69.0816 38.2504 67.7373 38.2504 66.066C38.2504 64.3947 36.9061 63.0504 35.2348 63.0504Z" fill="#0074A8"/>
<path d="M103.61 56.0017C101.866 57.7093 99.6862 58.5087 97.252 58.5632C95.3808 58.5995 93.5097 58.545 91.6386 58.5813C91.0755 58.5995 91.0028 58.3633 91.0028 57.891C91.021 54.9481 91.021 52.0052 91.021 49.0622C91.021 46.1738 91.0391 43.2854 91.0028 40.3788C91.0028 39.8338 91.13 39.6521 91.6931 39.6703C94.1819 39.7793 96.6888 39.4886 99.1776 39.9065C103.229 40.5786 105.881 43.3944 106.353 47.4818C106.753 50.7335 106.008 53.6401 103.61 56.0017ZM118.724 46.519C118.089 40.7784 115.564 36.1097 110.713 32.858C106.68 30.133 102.102 29.1339 97.3246 29.0794C91.6386 29.0067 85.9526 29.0612 80.2484 29.0612C79.1403 29.0612 78.8496 29.3519 78.8496 30.46C78.8496 36.6547 78.8496 42.8676 78.8496 49.0622V67.5918C78.8496 68.9906 79.0494 69.1904 80.4301 69.1904C85.9163 69.1904 91.3843 69.1904 96.8705 69.1904C99.3229 69.1904 101.757 68.9361 104.137 68.3184C109.986 66.7561 114.51 63.5225 117.071 57.9273C118.743 54.2941 119.16 50.461 118.724 46.519Z" fill="#0074A8"/>
<path d="M202.944 50.3524C202.944 56.1111 202.944 61.8698 202.944 67.6285C202.944 68.9546 202.707 69.1908 201.363 69.1908C198.729 69.1908 196.095 69.1908 193.461 69.1908C192.334 69.1908 192.08 68.9183 192.08 67.792C192.08 62.6873 192.08 57.5826 192.08 52.496C192.08 50.6431 191.372 49.5713 189.9 49.1534C188.065 48.6266 185.595 49.5349 184.487 51.0972C184.269 51.3879 184.341 51.6967 184.341 52.0055C184.341 57.2374 184.341 62.4693 184.341 67.7011C184.341 68.9183 184.087 69.1908 182.87 69.1908C180.181 69.2089 177.493 69.2089 174.804 69.1908C173.787 69.1908 173.46 68.8456 173.46 67.792C173.46 62.7963 173.46 57.8005 173.46 52.8048C173.46 49.6258 171.462 48.227 168.464 49.2806C167.501 49.6258 166.72 50.2434 166.03 50.9882C165.757 51.2789 165.794 51.6059 165.794 51.951C165.794 57.1647 165.794 62.3603 165.794 67.574C165.794 68.9728 165.576 69.1908 164.195 69.1908C161.579 69.1908 158.981 69.1908 156.365 69.1908C155.185 69.1908 154.912 68.9364 154.912 67.7556C154.912 59.0359 154.912 50.2979 154.912 41.56C154.912 40.3792 155.221 40.0885 156.42 40.0885C159.054 40.0885 161.688 40.0885 164.322 40.0885C165.449 40.0885 165.757 40.4337 165.776 41.56C165.776 42.0868 165.776 42.5954 165.776 43.2313C169.5 39.8887 173.678 38.7624 178.401 39.7615C180.908 40.2883 182.161 41.4146 183.796 44.3757C185.032 42.7408 186.576 41.5055 188.392 40.6517C191.19 39.3255 194.097 39.053 197.094 39.7615C200.455 40.5608 202.562 43.1586 202.853 46.7192C202.98 47.9363 202.944 49.1534 202.944 50.3524Z" fill="#0074A8"/>
<path d="M253.3 67.9931C253.3 68.8651 252.955 69.2103 252.029 69.2103C249.285 69.2103 246.542 69.2103 243.799 69.2103C242.727 69.2103 242.4 68.8651 242.4 67.7752C242.4 63.0701 242.4 58.3651 242.4 53.66C242.4 49.5908 239.112 47.7015 235.497 49.6998C235.007 49.9723 234.589 50.3356 234.171 50.6989C233.735 51.0804 233.59 51.4982 233.59 52.0796C233.608 57.2388 233.608 62.3798 233.608 67.539C233.608 69.0286 233.408 69.2103 231.919 69.2103C229.357 69.2103 226.814 69.2103 224.252 69.2103C222.999 69.2103 222.745 68.956 222.745 67.757C222.745 59.0191 222.745 50.2993 222.745 41.5613C222.745 40.435 223.072 40.1262 224.216 40.1262C226.887 40.1262 229.539 40.108 232.209 40.1262C233.281 40.1262 233.608 40.4713 233.626 41.5432C233.626 42.0881 233.626 42.6331 233.626 43.3053C237.514 39.672 241.964 38.7819 246.815 39.8174C250.811 40.6712 253.282 43.8684 253.3 48.0285C253.337 54.6773 253.318 61.3262 253.3 67.9931Z" fill="#0074A8"/>
<path d="M136.292 59.6176C133.44 59.5994 131.096 57.2196 131.096 54.3675C131.114 51.5154 133.476 49.1902 136.364 49.2083C139.235 49.2083 141.56 51.5699 141.542 54.4402C141.524 57.3105 139.144 59.6357 136.292 59.6176ZM135.983 39.2896C127.681 39.3078 120.887 46.3017 120.96 54.858C121.032 63.5233 128.39 70.1721 136.782 69.9723C144.866 69.7725 151.733 62.8875 151.697 54.6582C151.679 45.9747 144.812 39.2714 135.983 39.2896Z" fill="#0074A8"/>
<path d="M271.848 59.6909C269.359 59.7272 266.616 57.6381 266.598 54.35C266.598 51.5706 269.05 49.1908 271.903 49.209C274.791 49.2272 277.08 51.5524 277.08 54.4409C277.08 57.402 274.791 59.6546 271.848 59.6909ZM272.084 39.3266C263.582 39.2357 256.588 46.0662 256.461 54.2774C256.334 62.6701 262.838 69.9185 271.83 70.0456C280.15 70.082 287.108 63.2151 287.235 55.0403C287.398 46.6112 280.75 39.4356 272.084 39.3266Z" fill="#0074A8"/>
<path d="M314.412 68.5019C312.196 69.4466 309.543 69.9189 304.82 69.9189C301.95 69.8644 297.735 68.9198 293.83 66.7398C293.557 66.5945 293.285 66.431 293.03 66.2312C292.504 65.8497 292.358 65.3592 292.703 64.796C293.83 62.8886 294.956 60.9993 296.119 59.1282C296.518 58.4742 297.027 58.4197 297.826 58.9102C299.752 60.0547 301.805 60.9448 303.985 61.4716C305.565 61.8531 307.164 61.9803 308.762 61.7078C309.144 61.6351 309.525 61.5261 309.907 61.399C310.415 61.2173 310.906 60.963 310.942 60.3453C310.979 59.6913 310.47 59.3825 309.943 59.1645C308.235 58.4924 306.419 58.3834 304.62 58.0745C302.204 57.6567 299.806 57.2026 297.608 56.0218C293.448 53.8055 291.85 48.61 294.12 44.5952C295.465 42.2336 297.645 40.9075 300.188 40.2717C306.51 38.673 312.559 39.327 318.227 42.6696C319.044 43.1419 319.153 43.6324 318.699 44.4317C317.827 45.9759 316.919 47.5382 316.029 49.0823C315.484 50.0088 315.011 50.1541 314.103 49.5364C311.542 47.8106 308.744 47.0113 305.674 47.3202C305.147 47.3747 304.639 47.5018 304.166 47.7743C303.785 48.0105 303.512 48.3193 303.549 48.7916C303.585 49.2458 303.948 49.4638 304.312 49.5909C305.583 50.0633 306.927 50.1541 308.272 50.3176C310.361 50.5901 312.432 50.8989 314.43 51.6074C317.609 52.7337 319.862 54.6956 320.334 58.2199C320.97 62.9431 318.826 66.6127 314.412 68.5019Z" fill="#0074A8"/>
<path d="M218.203 41.6327V67.7375C218.203 68.882 217.894 69.1908 216.75 69.1908C214.152 69.1908 211.536 69.1908 208.92 69.1908C207.521 69.1908 207.303 68.9728 207.303 67.6104V41.669C207.303 40.4337 207.612 40.1249 208.811 40.1249C211.409 40.1249 214.025 40.1249 216.622 40.1249C217.894 40.1067 218.203 40.4156 218.203 41.6327Z" fill="#0074A8"/>
<path d="M295.772 33.6954C295.009 37.8009 292.375 40.3079 288.705 41.9428C288.288 42.1245 287.943 42.0518 287.67 41.6703C287.47 41.3615 287.252 41.0709 287.071 40.7439C286.816 40.3261 286.871 39.9809 287.325 39.6902C288.142 39.1634 288.778 38.4913 289.014 37.4558C286.871 37.2015 285.199 36.2932 284.2 34.4584C282.42 31.2066 284.4 27.1556 288.16 26.2291C292.684 25.0846 296.662 29.0085 295.772 33.6954Z" fill="#0074A8"/>
<path d="M219.13 32.0768C219.094 35.4012 216.369 38.0716 212.99 38.0534C209.575 38.0353 206.922 35.3467 206.941 31.9314C206.959 28.5525 209.72 25.8457 213.117 25.8821C216.46 25.9184 219.148 28.6797 219.13 32.0768Z" fill="#0074A8"/>
</svg>
