<?xml version="1.0" encoding="utf-8"?>
<!-- Generator: Adobe Illustrator 18.0.0, SVG Export Plug-In . SVG Version: 6.00 Build 0)  -->
<!DOCTYPE svg PUBLIC "-//W3C//DTD SVG 1.1//EN" "http://www.w3.org/Graphics/SVG/1.1/DTD/svg11.dtd">
<svg version="1.1" xmlns="http://www.w3.org/2000/svg" xmlns:xlink="http://www.w3.org/1999/xlink" x="0px" y="0px"
	 viewBox="0 0 96 96" enable-background="new 0 0 96 96" xml:space="preserve">
<g id="Layer_1" display="none">
	<path display="inline" fill="none" stroke="#0091F9" stroke-width="2" stroke-linecap="round" stroke-miterlimit="10" d="
		M16.3,34.4c0,0,11.6,2.7,14,6.5c1.4,2.3,11.9,29.3,15.9,39.7c0.9,2.2,3.5,3.2,5.6,2.3L90.1,66"/>
	<path display="inline" fill="#0091F9" stroke="#0091F9" stroke-width="2" stroke-miterlimit="10" d="M15.8,35.7H2.3
		c-0.5,0-0.9-0.4-0.9-0.9v-0.6c0-0.5,0.4-0.9,0.9-0.9h13.3c0.5,0,0.9,0.4,0.9,0.9v0.6C16.7,35.3,16.3,35.7,15.8,35.7z"/>
	<circle display="inline" fill="#0091F9" cx="60.2" cy="86.3" r="5.8"/>
	<circle display="inline" fill="#0091F9" cx="90.2" cy="72.9" r="5.8"/>
	
		<rect x="36.5" y="19.8" transform="matrix(-0.9241 0.3822 -0.3822 -0.9241 110.4474 42.0157)" display="inline" fill="#0091F9" width="29" height="24.4"/>
	
		<rect x="29.7" y="17.3" transform="matrix(-0.9241 0.3822 -0.3822 -0.9241 95.3359 19.1944)" display="inline" fill="#0091F9" stroke="#FFFFFF" stroke-miterlimit="10" width="32.1" height="3.5"/>
	
		<rect x="43.4" y="45.6" transform="matrix(-0.9265 0.3764 -0.3764 -0.9265 137.9851 83.0811)" display="inline" fill="#0091F9" width="35" height="18.9"/>
	
		<rect x="37.5" y="43.8" transform="matrix(-0.9265 0.3764 -0.3764 -0.9265 126.4424 65.5924)" display="inline" fill="#0091F9" stroke="#FFFFFF" stroke-miterlimit="10" width="38.6" height="2.7"/>
	<path display="inline" fill="none" stroke="#0091F9" stroke-width="2" stroke-linecap="round" stroke-miterlimit="10" d="
		M44.7,75.5l36.7-14.9c1.8-0.8,2.8-2.6,2.6-4.5l-4-27.3"/>
	<g display="inline">
		<g>
			<path fill="none" stroke="#FFFFFF" stroke-width="1.08" stroke-miterlimit="10" d="M60.2,49.7l4.6,11L60.2,49.7z"/>
			<g>
				<polygon fill="#FFFFFF" points="57.5,54.7 58.5,55.1 60.4,50.1 65.2,52.3 65.7,51.3 59.7,48.6 				"/>
			</g>
		</g>
	</g>
	<g display="inline">
		<g>
			<line fill="none" stroke="#FFFFFF" stroke-width="1.08" stroke-miterlimit="10" x1="48.7" y1="26.8" x2="53.4" y2="37.8"/>
			<g>
				<polygon fill="#FFFFFF" points="46,31.8 47.1,32.2 48.9,27.2 53.8,29.4 54.2,28.4 48.3,25.7 				"/>
			</g>
		</g>
	</g>
</g>
<g id="Layer_2" display="none">
	<path display="inline" fill="#0091F9" d="M73.9,96.2H25.9c-1.6,0-2.9-1.5-2.6-3l3.9-24c0.5-2.7,2.9-4.9,5.7-4.9h34
		c2.9,0,5.2,2.1,5.7,4.9l3.9,24C76.7,94.8,75.4,96.2,73.9,96.2z"/>
	
		<line display="inline" fill="none" stroke="#0091F9" stroke-width="2.2834" stroke-linecap="round" stroke-miterlimit="10" x1="16.8" y1="40.5" x2="82.9" y2="40.5"/>
	<g display="inline">
		<path fill="#FFFFFF" d="M43.7,71.8h12.2l0,0c-0.7,1.1-1.1,1.7-1.2,1.7h-3.2c0.5,0.5,0.7,1.1,0.9,1.9h3.5h0.1
			c-0.7,1.1-1.1,1.7-1.2,1.7h-2.2c0,0.6-0.4,1.4-0.9,2.1c-0.7,0.9-1.4,1.4-2,1.6c-1.2,0.6-2.4,0.9-3.4,0.9l0,0c0,0.1,0.2,0.5,0.7,1
			l6.1,7.4v0.4c0,0,0,0-0.1,0h-2.6c-4.7-5.6-7.2-8.4-7.2-8.4v-1.7v-0.1c0.4,0,0.9,0.1,1.5,0.1c2.7,0,4.4-0.9,5-2.6
			c0.1-0.2,0.1-0.5,0.1-0.7h-7.2l0,0c0.7-1.1,1.2-1.7,1.2-1.7h5.7l0,0c-0.4-0.6-1-1.2-1.9-1.6c-0.6-0.2-1.2-0.4-1.9-0.4h-3.2v-0.1
			C43.3,72.3,43.7,71.8,43.7,71.8z"/>
	</g>
	
		<rect x="26.8" y="22.2" transform="matrix(-1 8.398611e-004 -8.398611e-004 -1 73.1482 60.8867)" display="inline" fill="#0091F9" width="19.5" height="16.4"/>
	
		<rect x="24.6" y="19.9" transform="matrix(-1 7.597525e-004 -7.597525e-004 -1 73.1862 42.0978)" display="inline" fill="#0091F9" stroke="#FFFFFF" stroke-width="0.6734" stroke-miterlimit="10" width="23.9" height="2.3"/>
	
		<rect x="55.2" y="22.2" transform="matrix(-1 8.398611e-004 -8.398611e-004 -1 130.0543 60.8629)" display="inline" fill="#0091F9" width="19.5" height="16.4"/>
	
		<rect x="53.1" y="19.9" transform="matrix(-1 7.597525e-004 -7.597525e-004 -1 130.0923 42.0762)" display="inline" fill="#0091F9" stroke="#FFFFFF" stroke-width="0.6734" stroke-miterlimit="10" width="23.9" height="2.3"/>
	
		<rect x="39.4" y="3" transform="matrix(-1 8.398611e-004 -8.398611e-004 -1 98.4149 22.4645)" display="inline" fill="#0091F9" width="19.5" height="16.4"/>
	
		<rect x="37.3" y="0.7" transform="matrix(-1 7.597525e-004 -7.597525e-004 -1 98.4068 3.6766)" display="inline" fill="#0091F9" stroke="#FFFFFF" stroke-width="0.6734" stroke-miterlimit="10" width="23.9" height="2.3"/>
	<g display="inline">
		<path fill="#FFFFFF" d="M49.9,61.4l0-21.4L49.9,61.4z"/>
		<g>
			<path fill="none" stroke="#0091F9" stroke-width="1.8933" stroke-miterlimit="10" d="M49.9,61.4l0-21.4L49.9,61.4z"/>
			<g>
				<polygon fill="#0091F9" points="57.6,55.1 56.2,53.8 49.9,60.6 43.5,53.8 42.1,55.1 49.9,63.4 				"/>
			</g>
		</g>
	</g>
</g>
<g id="Layer_3">
	<g>
		<path fill="#0091F9" d="M58.5,11c0,5.9-6.1,10.5-8.9,10.5c-2.8,0-8.9-4.8-8.9-10.5s1.8-10.5,8.9-10.5S58.5,5.1,58.5,11z"/>
		<path fill="#0091F9" d="M50.5,26h-2.2c-0.2,0-0.4-0.1-0.5-0.2l-1-2c-0.1-0.2-0.1-0.5,0-0.7c0.2-0.4,0.6-0.6,1-0.6h2.9
			c0.4,0,0.9,0.2,1,0.5c0.2,0.2,0.2,0.7,0,1l-0.9,1.7C51,25.9,50.8,26,50.5,26z"/>
		<polygon fill="#0091F9" points="52,37.4 49.4,40.4 47,37.4 47.9,27.5 51,27.5 		"/>
		<path fill="#0091F9" d="M67.1,33.5c0-4.5-3.7-6.1-8.2-6.1h-5.5l-1,10.1l-2.9,3.9l-2.8-3.8l-1.3-10.2h-5.8c-4.5,0-8.2,1.7-8.2,6.1
			L30,43.2c0,0.2,0.2,0,0.5,0H68c0.1,0,0.4,0.2,0.4,0.1L67.1,33.5z"/>
	</g>
	<linearGradient id="SVGID_1_" gradientUnits="userSpaceOnUse" x1="11.127" y1="81.4802" x2="11.627" y2="50.9802">
		<stop  offset="0" style="stop-color:#FFFFFF"/>
		<stop  offset="1" style="stop-color:#0091F9"/>
	</linearGradient>
	<linearGradient id="SVGID_2_" gradientUnits="userSpaceOnUse" x1="11.4635" y1="70.441" x2="11.3676" y2="57.408">
		<stop  offset="0.1823" style="stop-color:#FFFFFF"/>
		<stop  offset="1" style="stop-color:#0091F9"/>
	</linearGradient>
	<path fill="url(#SVGID_1_)" stroke="url(#SVGID_2_)" stroke-width="1.0214" stroke-miterlimit="10" d="M16.4,63.9c0,3.3-3.4,6-5,6
		s-5-2.7-5-6c0-3.3,1.1-6,5-6S16.4,60.6,16.4,63.9z"/>
	<linearGradient id="SVGID_3_" gradientUnits="userSpaceOnUse" x1="11.4562" y1="81.4856" x2="11.9562" y2="50.9856">
		<stop  offset="0" style="stop-color:#FFFFFF"/>
		<stop  offset="1" style="stop-color:#0091F9"/>
	</linearGradient>
	<linearGradient id="SVGID_4_" gradientUnits="userSpaceOnUse" x1="11.4819" y1="80.9379" x2="11.4104" y2="71.2186">
		<stop  offset="0.202" style="stop-color:#FFFFFF"/>
		<stop  offset="1" style="stop-color:#0091F9"/>
	</linearGradient>
	<path fill="url(#SVGID_3_)" stroke="url(#SVGID_4_)" stroke-width="1.0214" stroke-miterlimit="10" d="M21.6,75.4
		c0-2.6-2.1-3.7-4.7-3.7h-3.1H9.3H6c-2.6,0-4.7,1.1-4.7,3.7c0,0-0.6,4.9-0.5,4.9h21.2C22.2,80.3,21.6,75.4,21.6,75.4z"/>
	<linearGradient id="SVGID_5_" gradientUnits="userSpaceOnUse" x1="48.0128" y1="91.0003" x2="48.5128" y2="65.3336">
		<stop  offset="0" style="stop-color:#FFFFFF"/>
		<stop  offset="1" style="stop-color:#0091F9"/>
	</linearGradient>
	<linearGradient id="SVGID_6_" gradientUnits="userSpaceOnUse" x1="48.3577" y1="82.3305" x2="48.2618" y2="69.2974">
		<stop  offset="0.1921" style="stop-color:#FFFFFF"/>
		<stop  offset="1" style="stop-color:#0091F9"/>
	</linearGradient>
	<path fill="url(#SVGID_5_)" stroke="url(#SVGID_6_)" stroke-width="1.0214" stroke-miterlimit="10" d="M53.3,75.8c0,3.3-3.4,6-5,6
		c-1.6,0-5-2.7-5-6c0-3.3,1.1-6,5-6S53.3,72.4,53.3,75.8z"/>
	<linearGradient id="SVGID_7_" gradientUnits="userSpaceOnUse" x1="48.369" y1="91.0072" x2="48.869" y2="65.3405">
		<stop  offset="0" style="stop-color:#FFFFFF"/>
		<stop  offset="1" style="stop-color:#0091F9"/>
	</linearGradient>
	<linearGradient id="SVGID_8_" gradientUnits="userSpaceOnUse" x1="48.3759" y1="91.6017" x2="48.3135" y2="83.1078">
		<stop  offset="0.2463" style="stop-color:#FFFFFF"/>
		<stop  offset="1" style="stop-color:#0091F9"/>
	</linearGradient>
	<path fill="url(#SVGID_7_)" stroke="url(#SVGID_8_)" stroke-width="1.0214" stroke-miterlimit="10" d="M58.5,86.7
		c0-2.6-2.1-3.1-4.7-3.1H42.9c-2.6,0-4.7,0.6-4.7,3.1c0,0-0.6,4.3-0.5,4.3H59C59.1,91,58.5,86.7,58.5,86.7z"/>
	<linearGradient id="SVGID_9_" gradientUnits="userSpaceOnUse" x1="84.7131" y1="80.5193" x2="84.5464" y2="57.8526">
		<stop  offset="0" style="stop-color:#FFFFFF"/>
		<stop  offset="1" style="stop-color:#0091F9"/>
	</linearGradient>
	<linearGradient id="SVGID_10_" gradientUnits="userSpaceOnUse" x1="84.639" y1="70.441" x2="84.5431" y2="57.408">
		<stop  offset="0.2315" style="stop-color:#FFFFFF"/>
		<stop  offset="1" style="stop-color:#0091F9"/>
	</linearGradient>
	<path fill="url(#SVGID_9_)" stroke="url(#SVGID_10_)" stroke-width="1.0214" stroke-miterlimit="10" d="M89.6,63.9c0,3.3-3.4,6-5,6
		s-5-2.7-5-6c0-3.3,1.1-6,5-6S89.6,60.6,89.6,63.9z"/>
	<linearGradient id="SVGID_11_" gradientUnits="userSpaceOnUse" x1="84.5317" y1="80.5206" x2="84.3651" y2="57.8539">
		<stop  offset="0" style="stop-color:#FFFFFF"/>
		<stop  offset="1" style="stop-color:#0091F9"/>
	</linearGradient>
	<linearGradient id="SVGID_12_" gradientUnits="userSpaceOnUse" x1="84.5348" y1="80.9379" x2="84.4633" y2="71.2186">
		<stop  offset="0.1232" style="stop-color:#FFFFFF"/>
		<stop  offset="1" style="stop-color:#0091F9"/>
	</linearGradient>
	<path fill="url(#SVGID_11_)" stroke="url(#SVGID_12_)" stroke-width="1.0214" stroke-miterlimit="10" d="M94.6,75.4
		c0-2.6-2.1-3.7-4.7-3.7h-3.1h-4.5h-3.3c-2.6,0-4.7,1.1-4.7,3.7c0,0-0.6,4.9-0.5,4.9h21.2C95.3,80.3,94.6,75.4,94.6,75.4z"/>
	<line fill="none" stroke="#0091F9" stroke-width="1.0214" stroke-miterlimit="10" x1="47.7" y1="49.3" x2="47.8" y2="67"/>
	<linearGradient id="SVGID_13_" gradientUnits="userSpaceOnUse" x1="46.3945" y1="71.7369" x2="48.7984" y2="61.6583">
		<stop  offset="0.1823" style="stop-color:#FFFFFF"/>
		<stop  offset="1" style="stop-color:#0091F9"/>
	</linearGradient>
	<circle fill="url(#SVGID_13_)" cx="47.8" cy="65.8" r="2.1"/>
	<path fill="none" stroke="#0091F9" stroke-width="1.1432" stroke-miterlimit="10" d="M9.3,55L21,41.7c4.5,4.5,14.7,7.7,26.7,7.7
		c12.3,0,22.5-3.2,26.9-7.8L86.1,55"/>
	<linearGradient id="SVGID_14_" gradientUnits="userSpaceOnUse" x1="9.0038" y1="57.0016" x2="11.3372" y2="51.5016">
		<stop  offset="0.1823" style="stop-color:#FFFFFF"/>
		<stop  offset="1" style="stop-color:#0091F9"/>
	</linearGradient>
	<circle fill="url(#SVGID_14_)" cx="10.4" cy="53.6" r="2.1"/>
	<linearGradient id="SVGID_15_" gradientUnits="userSpaceOnUse" x1="87.1493" y1="57.4623" x2="83.4968" y2="51.0704">
		<stop  offset="0.1823" style="stop-color:#FFFFFF"/>
		<stop  offset="1" style="stop-color:#0091F9"/>
	</linearGradient>
	<circle fill="url(#SVGID_15_)" cx="85" cy="53.6" r="2.1"/>
</g>
</svg>
