<?xml version="1.0" encoding="utf-8"?>
<!-- Generator: Adobe Illustrator 18.0.0, SVG Export Plug-In . SVG Version: 6.00 Build 0)  -->
<!DOCTYPE svg PUBLIC "-//W3C//DTD SVG 1.1//EN" "http://www.w3.org/Graphics/SVG/1.1/DTD/svg11.dtd">
<svg version="1.1" id="Layer_1" xmlns="http://www.w3.org/2000/svg" xmlns:xlink="http://www.w3.org/1999/xlink" x="0px" y="0px"
	 viewBox="0 0 96 96" enable-background="new 0 0 96 96" xml:space="preserve">
<path fill="#0091F9" d="M39.2,31.3c-2.7,0.1-5.2-0.9-7.5-2.6c-0.4-0.2-0.7-0.4-1.4-0.2c-2.6,0.5-5.1,1.4-7.5,1.9
	c-0.2,0.1-0.6,0.1-0.7-0.1c-0.1-0.1-0.1-0.5,0-0.7c2-5.1,4-10.5,6.1-15.6c1.7-4.1,5.1-6.6,9.7-7.2c7.6-1,14.4,4.9,14.2,12.6
	C51.8,25.9,46.2,31.3,39.2,31.3z"/>
<path fill="#0091F9" d="M46.3,5.7c1.4-1,2.9-1.7,4.7-2.2c4.2-1,8.1,0,11.1,3.1c3.6,4,7.4,8,10.9,12c0.1,0.1,0.4,0.6,0.2,0.7
	c0,0.2-0.4,0.4-0.6,0.4c-2.4,0.2-4.9,0.5-7.5,0.9c-0.5,0-0.7,0.2-1,0.6c-1.5,2.2-3.4,4.1-5.9,5c-2.2,0.9-4.6,1-6.7,0.6
	C60.3,12.8,47,6,46.3,5.7z"/>
<path fill="#0091F9" d="M10,43.7c-5.5,0-9.9-4.4-9.9-9.7c0-5.5,4.4-9.9,9.9-10c5.5,0,9.9,4.4,9.9,9.9S15.4,43.7,10,43.7z"/>
<path fill="#0091F9" d="M20.1,86.1H0V55.8c0-5.5,4.5-10,10-10l0,0c5.5,0,10,4.5,10,10v30.3H20.1z"/>
<path fill="#0091F9" d="M86,43.7c-5.5,0-9.9-4.4-9.9-9.7c0-5.5,4.4-9.9,9.9-10c5.5,0,9.9,4.4,9.9,9.9C95.6,39.3,91.4,43.7,86,43.7z"
	/>
<path fill="#0091F9" d="M95.9,86.1h-20V55.8c0-5.5,4.5-10,10-10l0,0c5.5,0,10,4.5,10,10V86.1z"/>
<path fill="#0091F9" d="M67.4,69H28.2c-2.2,0-4.1-1.9-4.1-4.1l0,0c0-2.2,1.9-4.1,4.1-4.1h39.2c2.2,0,4.1,1.9,4.1,4.1l0,0
	C71.5,67.3,69.7,69,67.4,69z"/>
<rect x="33.3" y="69.6" fill="#0091F9" width="29" height="15.6"/>
</svg>
