<svg xmlns="http://www.w3.org/2000/svg" viewBox="0 0 500 500" xmlns:v="https://vecta.io/nano"><circle cx="246.5" cy="252.5" r="161.5" fill="#0095f3"/><path d="M311.7 151.7l-1.2 2.7-8.7 14.5c-1.1 1.8-2.4 2.5-4.5 2.5-8-.1-16.1 0-24.1 0-1.3 0-2.5.1-4.1.2.4.8.5 1.4.8 1.8 3.3 4.7 5.8 9.8 7.1 15.5.4 1.7 1.5 2 3 2h28.6c.9 0 1.8.4 2.7.6-.3.9-.6 1.8-1 2.6l-8.6 14.3c-.9 1.6-2.1 2.3-4 2.2-5.6-.1-11.1 0-16.7 0-2.1 0-2.9.7-3.3 2.9-2.1 11.8-8 21.6-17.1 29.4-9.5 8.1-20.6 12.9-32.8 15.1l-10.7 1.8 73 93.3c-1.3.2-2.1.3-2.9.3l-26.8.1c-1.8 0-2.7-.9-3.7-2.1l-26.5-34.1-40.6-52.2c-.8-1.1-1.3-2.6-1.4-4-.2-4.4-.1-8.9-.1-13.3 0-3 .1-2.9 3-3 8.1-.2 16.3-.1 24.3-.9 9.9-1 18.9-4.5 26.3-11.4 5.5-5.1 8.6-11.5 9.9-18.8.5-2.7.2-3.1-2.7-3.1h-61.8-5.7c1-1.9 1.6-3.2 2.3-4.4l8-13.1c1-1.6 2.1-2.2 4-2.2h49.6c1.1 0 2.1-.4 3.2-.6-.4-1-.6-2.1-1.1-3-4.2-7-10.8-10.8-18.5-13.1-7.9-2.3-16-2.8-24.1-2.8h-20.5c-2.5 0-2.8-.4-1.6-2.5l9.6-15.7c.5-.7 1.6-1.3 2.5-1.4 2.5-.2 5-.1 7.4-.1h106.2 3.3z" fill="#fff"/><path d="M403.8 113.8l-38.4 22.5 99.9 57.4v-116l-37.4 21.8C382.5 47.8 325.8 19 257.2 15.8c-58.4-2.7-110.9 14.4-156.9 50.5C9.4 138-16.5 264.2 38.5 365.3 93.7 466.7 213.6 514 322.7 476.7c112.2-38.3 163-143.3 160.4-224h-26.2c-2.2 70.8-30.8 128.2-88.3 170.2-40.1 29.3-85.5 41.3-135 39-92.3-4.4-174.8-76.2-192.4-167.9-18.7-97 29.9-192.2 119-232.6 86.8-39.3 186-14.2 243.6 52.4z" fill="#0095f3"/></svg>