<?xml version="1.0" encoding="utf-8"?>
<!-- Generator: Adobe Illustrator 18.0.0, SVG Export Plug-In . SVG Version: 6.00 Build 0)  -->
<!DOCTYPE svg PUBLIC "-//W3C//DTD SVG 1.1//EN" "http://www.w3.org/Graphics/SVG/1.1/DTD/svg11.dtd">
<svg version="1.1" xmlns="http://www.w3.org/2000/svg" xmlns:xlink="http://www.w3.org/1999/xlink" x="0px" y="0px"
	 viewBox="0 0 96 96" enable-background="new 0 0 96 96" xml:space="preserve">
<g id="Layer_1" display="none">
	<path display="inline" fill="#0091F9" d="M71.2,95.2H25c-1.6,0-2.8-1.4-2.5-2.9l3.7-23c0.5-2.6,2.8-4.7,5.5-4.7h32.6
		c2.8,0,5,2,5.5,4.7l3.7,23C73.8,93.9,72.6,95.2,71.2,95.2z"/>
	
		<rect x="23.8" y="20.4" transform="matrix(-1 1.479061e-003 -1.479061e-003 -1 71.0904 43.9032)" display="inline" fill="#0091F9" stroke="#FCFCFC" stroke-width="1.3074" stroke-miterlimit="10" width="23.4" height="3.2"/>
	
		<line display="inline" fill="none" stroke="#0091F9" stroke-width="2" stroke-linecap="round" stroke-miterlimit="10" x1="16.2" y1="41.7" x2="79.8" y2="41.7"/>
	<g display="inline">
		<path fill="#FFFFFF" d="M42.7,71.7h11.8l0,0c-0.7,1.1-1.1,1.7-1.2,1.7h-3.1c0.5,0.5,0.7,1.1,0.8,1.8h3.4h0.1
			c-0.7,1.1-1.1,1.7-1.2,1.7h-2.2c0,0.6-0.4,1.3-0.8,2c-0.7,0.8-1.3,1.3-1.9,1.6c-1.2,0.6-2.3,0.8-3.2,0.8l0,0c0,0.1,0.2,0.5,0.7,1
			l5.9,7.1v0.4c0,0,0,0-0.1,0h-2.5c-4.6-5.4-7-8-7-8V80v-0.1c0.4,0,0.8,0.1,1.4,0.1c2.6,0,4.2-0.8,4.8-2.5c0.1-0.2,0.1-0.5,0.1-0.7
			h-7l0,0c0.7-1.1,1.2-1.7,1.2-1.7h5.5l0,0c-0.4-0.6-1-1.2-1.8-1.6c-0.6-0.2-1.2-0.4-1.8-0.4h-3.1V73C42.4,72.2,42.7,71.7,42.7,71.7
			z"/>
	</g>
	<g display="inline">
		<g>
			<line fill="none" stroke="#0091F9" stroke-width="2.2419" stroke-miterlimit="10" x1="48" y1="41.7" x2="48" y2="62.2"/>
			<g>
				<polygon fill="#0091F9" points="38.8,54.8 40.5,53.2 48,61.3 55.5,53.2 57.2,54.8 48,64.6 				"/>
			</g>
		</g>
	</g>
	
		<rect x="26.2" y="23.9" transform="matrix(-1 1.128347e-003 -1.128347e-003 -1 71.0936 63.2914)" display="inline" fill="#0091F9" width="18.6" height="15.6"/>
	
		<rect x="51.3" y="20.4" transform="matrix(-1 1.479061e-003 -1.479061e-003 -1 126.0812 43.8625)" display="inline" fill="#0091F9" stroke="#FCFCFC" stroke-width="1.3074" stroke-miterlimit="10" width="23.4" height="3.2"/>
	
		<rect x="53.7" y="23.9" transform="matrix(-1 1.128347e-003 -1.128347e-003 -1 126.0844 63.2603)" display="inline" fill="#0091F9" width="18.6" height="15.6"/>
	
		<rect x="36.3" y="1" transform="matrix(-1 1.479061e-003 -1.479061e-003 -1 96.0038 5.1967)" display="inline" fill="#0091F9" stroke="#FCFCFC" stroke-width="1.3074" stroke-miterlimit="10" width="23.4" height="3.2"/>
	
		<rect x="38.7" y="4.5" transform="matrix(-1 1.128347e-003 -1.128347e-003 -1 96.0139 24.5892)" display="inline" fill="#0091F9" width="18.6" height="15.6"/>
</g>
<g id="Layer_2">
	<g>
		<g>
			<path fill="none" stroke="#0091F9" stroke-width="2.185" stroke-linecap="round" stroke-miterlimit="10" d="M67.2,82
				c-5.7,3.3-12.3,5.1-19.4,5.1c-20.9,0-37.9-16.3-39.2-36.9"/>
			<g>
				<polygon fill="#0091F9" points="18.4,56.5 17,58.1 8.9,51 2.4,59.6 0.6,58.3 8.6,47.8 				"/>
			</g>
		</g>
	</g>
	<g>
		<g>
			<path fill="none" stroke="#0091F9" stroke-width="2.185" stroke-linecap="round" stroke-miterlimit="10" d="M31.3,12.2
				c5-2.3,10.6-3.6,16.5-3.6C69.5,8.6,87,26.2,87,47.8c0,0.7,0,1.4-0.1,2.1"/>
			<g>
				<polygon fill="#0091F9" points="77.9,42.6 79.6,41.2 86.8,49.1 94.2,41.3 95.8,42.8 86.8,52.3 				"/>
			</g>
		</g>
	</g>
	<circle fill="#0091F9" cx="17.7" cy="27" r="16.7"/>
	
		<rect x="65" y="55.1" transform="matrix(-1 1.479061e-003 -1.479061e-003 -1 158.554 114.0988)" fill="#0091F9" stroke="#FCFCFC" stroke-width="1.5907" stroke-miterlimit="10" width="28.5" height="3.9"/>
	
		<rect x="67.9" y="59.4" transform="matrix(-1 1.128347e-003 -1.128347e-003 -1 158.5473 137.7019)" fill="#0091F9" width="22.6" height="19"/>
	<g>
		<path fill="#FFFFFF" d="M11.9,18.1h12.8l0,0C24,19.3,23.6,20,23.4,20H20c0.5,0.5,0.8,1.2,0.9,2h3.7h0.1c-0.8,1.2-1.2,1.8-1.3,1.8
			h-2.4c0,0.7-0.4,1.4-0.9,2.2c-0.8,0.9-1.4,1.4-2.1,1.7c-1.3,0.7-2.5,0.9-3.5,0.9l0,0c0,0.1,0.3,0.5,0.8,1l6.4,7.7v0.4
			c0,0,0,0-0.1,0h-2.8c-5-5.9-7.6-8.8-7.6-8.8v-1.8v-0.1c0.4,0,0.9,0.1,1.6,0.1c2.9,0,4.6-0.9,5.2-2.8c0.1-0.3,0.1-0.5,0.1-0.8h-7.6
			l0,0c0.8-1.2,1.3-1.8,1.3-1.8h6l0,0c-0.4-0.7-1-1.3-2-1.7c-0.7-0.3-1.3-0.4-2-0.4h-3.4v-0.1C11.5,18.7,11.9,18.1,11.9,18.1z"/>
	</g>
	<g>
		<path fill="#FFFFFF" d="M75.3,62.3H84l0,0c-0.5,0.8-0.8,1.2-0.9,1.2h-2.3c0.4,0.4,0.5,0.8,0.6,1.3h2.5H84
			c-0.5,0.8-0.8,1.2-0.9,1.2h-1.6c0,0.4-0.3,1-0.6,1.5c-0.5,0.6-1,1-1.4,1.2c-0.9,0.4-1.7,0.6-2.4,0.6l0,0c0,0.1,0.2,0.4,0.5,0.7
			l4.3,5.2v0.3c0,0,0,0-0.1,0H80c-3.4-4-5.1-5.9-5.1-5.9v-1.2v-0.1c0.3,0,0.6,0.1,1.1,0.1c1.9,0,3.1-0.6,3.5-1.9
			c0.1-0.2,0.1-0.4,0.1-0.5h-5.1l0,0c0.5-0.8,0.9-1.2,0.9-1.2h4.1l0,0c-0.3-0.4-0.7-0.9-1.3-1.2c-0.4-0.2-0.9-0.3-1.3-0.3h-2.3v-0.1
			C75.1,62.6,75.3,62.3,75.3,62.3z"/>
	</g>
</g>
</svg>
