<?xml version="1.0" encoding="utf-8"?>
<!-- Generator: Adobe Illustrator 18.0.0, SVG Export Plug-In . SVG Version: 6.00 Build 0)  -->
<!DOCTYPE svg PUBLIC "-//W3C//DTD SVG 1.1//EN" "http://www.w3.org/Graphics/SVG/1.1/DTD/svg11.dtd">
<svg version="1.1" id="Layer_1" xmlns="http://www.w3.org/2000/svg" xmlns:xlink="http://www.w3.org/1999/xlink" x="0px" y="0px"
	 viewBox="0 0 96 96" enable-background="new 0 0 96 96" xml:space="preserve">
<path fill="#0091F9" d="M71.2,95.2H25c-1.6,0-2.8-1.4-2.5-2.9l3.7-23c0.5-2.6,2.8-4.7,5.5-4.7h32.6c2.8,0,5,2,5.5,4.7l3.7,23
	C73.8,93.9,72.6,95.2,71.2,95.2z"/>
<rect x="23.8" y="20.4" transform="matrix(-1 1.479061e-003 -1.479061e-003 -1 71.0904 43.9032)" fill="#0091F9" stroke="#FCFCFC" stroke-width="1.3074" stroke-miterlimit="10" width="23.4" height="3.2"/>
<line fill="none" stroke="#0091F9" stroke-width="2" stroke-linecap="round" stroke-miterlimit="10" x1="16.2" y1="41.7" x2="79.8" y2="41.7"/>
<g>
	<path fill="#FFFFFF" d="M42.7,71.7h11.8l0,0c-0.7,1.1-1.1,1.7-1.2,1.7h-3.1c0.5,0.5,0.7,1.1,0.8,1.8h3.4h0.1
		c-0.7,1.1-1.1,1.7-1.2,1.7h-2.2c0,0.6-0.4,1.3-0.8,2c-0.7,0.8-1.3,1.3-1.9,1.6c-1.2,0.6-2.3,0.8-3.2,0.8l0,0c0,0.1,0.2,0.5,0.7,1
		l5.9,7.1v0.4c0,0,0,0-0.1,0h-2.5c-4.6-5.4-7-8-7-8V80v-0.1c0.4,0,0.8,0.1,1.4,0.1c2.6,0,4.2-0.8,4.8-2.5c0.1-0.2,0.1-0.5,0.1-0.7
		h-7l0,0c0.7-1.1,1.2-1.7,1.2-1.7h5.5l0,0c-0.4-0.6-1-1.2-1.8-1.6c-0.6-0.2-1.2-0.4-1.8-0.4h-3.1V73C42.4,72.2,42.7,71.7,42.7,71.7z
		"/>
</g>
<g>
	<g>
		<line fill="none" stroke="#0091F9" stroke-width="2.2419" stroke-miterlimit="10" x1="48" y1="41.7" x2="48" y2="62.2"/>
		<g>
			<polygon fill="#0091F9" points="38.8,54.8 40.5,53.2 48,61.3 55.5,53.2 57.2,54.8 48,64.6 			"/>
		</g>
	</g>
</g>
<rect x="26.2" y="23.9" transform="matrix(-1 1.128347e-003 -1.128347e-003 -1 71.0936 63.2914)" fill="#0091F9" width="18.6" height="15.6"/>
<rect x="51.3" y="20.4" transform="matrix(-1 1.479061e-003 -1.479061e-003 -1 126.0812 43.8625)" fill="#0091F9" stroke="#FCFCFC" stroke-width="1.3074" stroke-miterlimit="10" width="23.4" height="3.2"/>
<rect x="53.7" y="23.9" transform="matrix(-1 1.128347e-003 -1.128347e-003 -1 126.0844 63.2603)" fill="#0091F9" width="18.6" height="15.6"/>
<rect x="36.3" y="1" transform="matrix(-1 1.479061e-003 -1.479061e-003 -1 96.0038 5.1967)" fill="#0091F9" stroke="#FCFCFC" stroke-width="1.3074" stroke-miterlimit="10" width="23.4" height="3.2"/>
<rect x="38.7" y="4.5" transform="matrix(-1 1.128347e-003 -1.128347e-003 -1 96.0139 24.5892)" fill="#0091F9" width="18.6" height="15.6"/>
</svg>
